<?xml version="1.0" encoding="UTF-8" standalone="no"?>
<!-- Created with Inkscape (http://www.inkscape.org/) -->

<svg
   xmlns:dc="http://purl.org/dc/elements/1.1/"
   xmlns:cc="http://creativecommons.org/ns#"
   xmlns:rdf="http://www.w3.org/1999/02/22-rdf-syntax-ns#"
   xmlns:svg="http://www.w3.org/2000/svg"
   xmlns="http://www.w3.org/2000/svg"
   xmlns:xlink="http://www.w3.org/1999/xlink"
   xmlns:sodipodi="http://sodipodi.sourceforge.net/DTD/sodipodi-0.dtd"
   xmlns:inkscape="http://www.inkscape.org/namespaces/inkscape"
   width="630.19733"
   height="496.93396"
   viewBox="0 0 166.73971 131.48045"
   version="1.1"
   id="svg8"
   sodipodi:docname="high-low-same-logo.svg"
   inkscape:version="0.92.1 r15371">
  <defs
     id="defs2">
    <linearGradient
       inkscape:collect="always"
       id="linearGradient4678">
      <stop
         style="stop-color:#f9ff52;stop-opacity:1"
         offset="0"
         id="stop4674" />
      <stop
         style="stop-color:#fdffc0;stop-opacity:1"
         offset="1"
         id="stop4676" />
    </linearGradient>
    <linearGradient
       inkscape:collect="always"
       xlink:href="#linearGradient4678"
       id="linearGradient4680"
       x1="243.31949"
       y1="125.36258"
       x2="243.31949"
       y2="91.552986"
       gradientUnits="userSpaceOnUse" />
    <linearGradient
       inkscape:collect="always"
       xlink:href="#linearGradient4678"
       id="linearGradient4944"
       x1="266.75894"
       y1="159.35652"
       x2="279.04318"
       y2="117.87363"
       gradientUnits="userSpaceOnUse" />
    <linearGradient
       inkscape:collect="always"
       xlink:href="#linearGradient4678"
       id="linearGradient4952"
       x1="290.92487"
       y1="130.51114"
       x2="290.92487"
       y2="109.62796"
       gradientUnits="userSpaceOnUse" />
    <linearGradient
       inkscape:collect="always"
       xlink:href="#linearGradient4678"
       id="linearGradient5409"
       x1="266.61008"
       y1="194.44473"
       x2="266.61008"
       y2="161.09613"
       gradientUnits="userSpaceOnUse"
       gradientTransform="matrix(1.1461796,0,0,1.1461796,-38.972952,-27.017426)" />
    <linearGradient
       inkscape:collect="always"
       xlink:href="#linearGradient4678"
       id="linearGradient5534"
       gradientUnits="userSpaceOnUse"
       x1="243.31949"
       y1="125.36258"
       x2="243.31949"
       y2="91.552986" />
    <linearGradient
       inkscape:collect="always"
       xlink:href="#linearGradient4678"
       id="linearGradient5536"
       gradientUnits="userSpaceOnUse"
       x1="243.31949"
       y1="125.36258"
       x2="243.31949"
       y2="91.552986" />
    <linearGradient
       inkscape:collect="always"
       xlink:href="#linearGradient4678"
       id="linearGradient5538"
       gradientUnits="userSpaceOnUse"
       x1="243.31949"
       y1="125.36258"
       x2="243.31949"
       y2="91.552986" />
    <linearGradient
       inkscape:collect="always"
       xlink:href="#linearGradient4678"
       id="linearGradient5540"
       gradientUnits="userSpaceOnUse"
       x1="243.31949"
       y1="125.36258"
       x2="243.31949"
       y2="91.552986" />
    <linearGradient
       inkscape:collect="always"
       xlink:href="#linearGradient4678"
       id="linearGradient5542"
       gradientUnits="userSpaceOnUse"
       x1="266.75894"
       y1="159.35652"
       x2="279.04318"
       y2="117.87363" />
    <linearGradient
       inkscape:collect="always"
       xlink:href="#linearGradient4678"
       id="linearGradient5544"
       gradientUnits="userSpaceOnUse"
       x1="266.75894"
       y1="159.35652"
       x2="279.04318"
       y2="117.87363" />
    <linearGradient
       inkscape:collect="always"
       xlink:href="#linearGradient4678"
       id="linearGradient5546"
       gradientUnits="userSpaceOnUse"
       x1="266.75894"
       y1="159.35652"
       x2="279.04318"
       y2="117.87363" />
    <linearGradient
       inkscape:collect="always"
       xlink:href="#linearGradient4678"
       id="linearGradient5548"
       gradientUnits="userSpaceOnUse"
       x1="266.75894"
       y1="159.35652"
       x2="279.04318"
       y2="117.87363" />
    <linearGradient
       inkscape:collect="always"
       xlink:href="#linearGradient4678"
       id="linearGradient5550"
       gradientUnits="userSpaceOnUse"
       x1="290.92487"
       y1="130.51114"
       x2="290.92487"
       y2="109.62796" />
    <linearGradient
       inkscape:collect="always"
       xlink:href="#linearGradient4678"
       id="linearGradient5552"
       gradientUnits="userSpaceOnUse"
       x1="290.92487"
       y1="130.51114"
       x2="290.92487"
       y2="109.62796" />
    <linearGradient
       inkscape:collect="always"
       xlink:href="#linearGradient4678"
       id="linearGradient5554"
       gradientUnits="userSpaceOnUse"
       x1="290.92487"
       y1="130.51114"
       x2="290.92487"
       y2="109.62796" />
  </defs>
  <sodipodi:namedview
     id="base"
     pagecolor="#ffffff"
     bordercolor="#666666"
     borderopacity="1.0"
     inkscape:pageopacity="0"
     inkscape:pageshadow="2"
     inkscape:zoom="1.0733323"
     inkscape:cx="302.35085"
     inkscape:cy="249.91675"
     inkscape:document-units="mm"
     inkscape:current-layer="layer1"
     showgrid="false"
     units="px"
     inkscape:window-width="2560"
     inkscape:window-height="1377"
     inkscape:window-x="2552"
     inkscape:window-y="-8"
     inkscape:window-maximized="1"
     inkscape:snap-bbox="false"
     inkscape:snap-bbox-midpoints="false"
     inkscape:snap-object-midpoints="false"
     inkscape:snap-others="false"
     inkscape:snap-nodes="false"
     fit-margin-top="0"
     fit-margin-left="0"
     fit-margin-right="0"
     fit-margin-bottom="0"
     inkscape:pagecheckerboard="true" />
  <metadata
     id="metadata5">
    <rdf:RDF>
      <cc:Work
         rdf:about="">
        <dc:format>image/svg+xml</dc:format>
        <dc:type
           rdf:resource="http://purl.org/dc/dcmitype/StillImage" />
        <dc:title></dc:title>
      </cc:Work>
    </rdf:RDF>
  </metadata>
  <g
     inkscape:label="Layer 1"
     inkscape:groupmode="layer"
     id="layer1"
     transform="translate(-170.63014,-91.315336)">
    <g
       id="g5532"
       transform="translate(-9.325005)">
      <g
         id="g4982">
        <g
           transform="translate(-1.2027129,1.9830319)"
           id="g4962"
           style="font-style:normal;font-weight:normal;font-size:24.67276764px;line-height:1.25;font-family:sans-serif;letter-spacing:0px;word-spacing:0px;fill:#545600;fill-opacity:1;stroke:none;stroke-width:5.29166651;stroke-miterlimit:4;stroke-dasharray:none;stroke-opacity:1;paint-order:stroke fill markers"
           aria-label="High">
          <path
             inkscape:connector-curvature="0"
             id="path4954"
             style="font-style:normal;font-variant:normal;font-weight:normal;font-stretch:normal;font-family:Pacifico;-inkscape-font-specification:Pacifico;fill:#545600;fill-opacity:1;stroke:none;stroke-width:5.29166651;stroke-miterlimit:4;stroke-dasharray:none;stroke-opacity:1;paint-order:stroke fill markers"
             d="m 240.7315,109.13935 q 0.32075,0 0.49346,0.29607 0.19738,0.29607 0.19738,0.8142 0,0.96224 -0.46878,1.52971 -2.44261,2.98541 -5.20596,2.98541 -2.39326,0 -3.82428,-1.85046 -1.43102,-1.85046 -1.43102,-5.30465 0,-0.83887 0.074,-1.67774 -1.6284,0.29607 -3.55288,0.44411 -1.28298,0.0987 -1.75176,0.12336 -0.49346,2.51662 -1.38168,6.16819 -0.51813,2.14653 -1.97382,2.14653 -1.57906,0 -1.57906,-1.43102 0,-0.32074 0.12337,-0.88822 0.83887,-3.38017 1.33233,-5.72408 l -1.1843,0.0494 q -0.8142,0 -1.18429,-0.27141 -0.37009,-0.29607 -0.37009,-0.93756 0,-0.8142 0.46878,-1.18429 0.46878,-0.39477 1.55439,-0.44411 l 1.30765,-0.0494 q 0.64149,-3.47886 0.64149,-5.304644 0,-1.15962 -0.34541,-1.579057 -0.34542,-0.419437 -0.9129,-0.419437 -1.72709,0 -3.89829,2.886714 -0.32075,0.419437 -0.71551,0.419437 -0.34542,0 -0.59215,-0.320746 -0.24673,-0.320746 -0.24673,-0.814201 0,-0.764856 0.61682,-1.628403 1.0856,-1.505039 2.73868,-2.467277 1.65307,-0.98691 3.35549,-0.98691 1.60373,0 2.46728,1.110274 0.88822,1.085602 0.88822,3.404842 0,2.047838 -0.59215,5.551368 l 2.41794,-0.12336 q 1.55438,-0.074 2.66465,-0.24673 0.44411,-2.714 1.35701,-5.082587 0.91289,-2.368585 2.26989,-3.848951 1.357,-1.480367 3.03475,-1.480367 1.23364,0 1.94915,0.986911 0.71551,0.962238 0.71551,2.541295 0,6.118849 -6.24221,8.487429 -0.074,0.98691 -0.074,2.04784 0,2.59064 0.64149,3.67625 0.6415,1.0856 1.80112,1.0856 1.01158,0 1.85045,-0.51813 0.83888,-0.5428 1.89981,-1.82579 0.29607,-0.34541 0.66616,-0.34541 z m -3.33082,-13.989464 q -0.5428,0 -1.15962,0.986911 -0.59215,0.986911 -1.13495,2.689332 -0.5428,1.702421 -0.86355,3.725591 1.97383,-0.8142 2.91139,-2.31924 0.93757,-1.505042 0.93757,-3.873628 0,-0.567474 -0.19739,-0.88822 -0.19738,-0.320746 -0.49345,-0.320746 z" />
          <path
             inkscape:connector-curvature="0"
             id="path4956"
             style="font-style:normal;font-variant:normal;font-weight:normal;font-stretch:normal;font-family:Pacifico;-inkscape-font-specification:Pacifico;fill:#545600;fill-opacity:1;stroke:none;stroke-width:5.29166651;stroke-miterlimit:4;stroke-dasharray:none;stroke-opacity:1;paint-order:stroke fill markers"
             d="m 242.65713,101.51546 q -1.03625,0 -1.55438,-0.46878 -0.51813,-0.49346 -0.51813,-1.357005 0,-0.863546 0.66617,-1.43102 0.69083,-0.592146 1.70242,-0.592146 0.91289,0 1.48036,0.444109 0.56748,0.44411 0.56748,1.258312 0,0.98691 -0.64149,1.57906 -0.6415,0.56747 -1.70243,0.56747 z m -0.19738,13.24928 q -1.60373,0 -2.34391,-1.13495 -0.71551,-1.13495 -0.71551,-3.01008 0,-1.11027 0.2714,-2.83737 0.29607,-1.75176 0.74018,-3.2568 0.22206,-0.78953 0.59215,-1.0856 0.37009,-0.29608 1.18429,-0.29608 1.25831,0 1.25831,0.83888 0,0.61682 -0.46878,2.86204 -0.59215,2.714 -0.59215,3.67624 0,0.74018 0.19739,1.13495 0.19738,0.39476 0.66616,0.39476 0.44411,0 1.11028,-0.61682 0.66616,-0.61682 1.77643,-1.94915 0.29608,-0.34541 0.66617,-0.34541 0.32075,0 0.49346,0.29607 0.19738,0.29607 0.19738,0.8142 0,0.98691 -0.46879,1.52971 -2.4426,2.98541 -4.56446,2.98541 z" />
          <path
             inkscape:connector-curvature="0"
             id="path4958"
             style="font-style:normal;font-variant:normal;font-weight:normal;font-stretch:normal;font-family:Pacifico;-inkscape-font-specification:Pacifico;fill:#545600;fill-opacity:1;stroke:none;stroke-width:5.29166651;stroke-miterlimit:4;stroke-dasharray:none;stroke-opacity:1;paint-order:stroke fill markers"
             d="m 258.12927,109.18869 q 0.32075,0 0.49346,0.32075 0.19738,0.29607 0.19738,0.76485 0,0.56748 -0.17271,0.88822 -0.17271,0.32075 -0.5428,0.56748 -2.12186,1.43102 -3.10877,2.12185 l -1.57906,1.06093 q -0.93756,5.10727 -2.46727,8.01865 -1.50504,2.93606 -3.84895,2.93606 -1.25832,0 -2.04784,-0.78953 -0.78953,-0.76485 -0.78953,-2.02316 0,-1.75177 1.38167,-3.77494 1.38168,-1.99849 5.18128,-4.93455 l 0.14804,-0.96224 q -0.41944,0.66617 -1.11027,1.03626 -0.66617,0.34542 -1.33233,0.34542 -1.52972,0 -2.44261,-1.11028 -0.91289,-1.11027 -0.91289,-2.91138 0,-1.97383 0.91289,-3.72559 0.91289,-1.77644 2.41793,-2.83737 1.52971,-1.0856 3.23214,-1.0856 0.5428,0 0.71551,0.22205 0.19738,0.19738 0.32074,0.74019 0.46878,-0.0987 1.0856,-0.0987 0.61682,0 0.86355,0.19739 0.2714,0.17271 0.2714,0.71551 0,0.29607 -0.0247,0.46878 -0.0987,0.76486 -0.61682,3.87362 -0.0987,0.59215 -0.22206,1.30766 -0.0987,0.69084 -0.22205,1.48037 1.8998,-1.48037 3.65157,-2.61532 0.32075,-0.19738 0.56747,-0.19738 z m -8.70948,3.0841 q 0.56747,0 1.0856,-0.69084 0.51813,-0.69084 0.74018,-1.97382 l 0.78953,-4.21905 q -1.01158,0.0247 -1.87513,0.78953 -0.86355,0.74019 -1.38168,1.97382 -0.51812,1.23364 -0.51812,2.61532 0,0.76485 0.29607,1.13495 0.32074,0.37009 0.86355,0.37009 z m -2.04784,11.20143 q 0.61682,0 1.38167,-1.48036 0.78953,-1.48037 1.50504,-4.7125 -1.8998,1.6284 -2.73868,2.93606 -0.83887,1.30765 -0.83887,2.29457 0,0.41943 0.14804,0.69083 0.1727,0.2714 0.5428,0.2714 z" />
          <path
             inkscape:connector-curvature="0"
             id="path4960"
             style="font-style:normal;font-variant:normal;font-weight:normal;font-stretch:normal;font-family:Pacifico;-inkscape-font-specification:Pacifico;fill:#545600;fill-opacity:1;stroke:none;stroke-width:5.29166651;stroke-miterlimit:4;stroke-dasharray:none;stroke-opacity:1;paint-order:stroke fill markers"
             d="m 266.03728,103.14386 q 0.78953,0 1.18429,0.41944 0.41944,0.39476 0.41944,1.18429 0,0.64149 -0.2714,2.41793 -0.24673,1.50504 -0.39476,2.86205 -0.14804,1.33232 -0.14804,2.9854 0,0.93757 -0.39477,1.357 -0.37009,0.39477 -1.23363,0.39477 -0.81421,0 -1.1843,-0.41944 -0.37009,-0.41944 -0.37009,-1.25831 0,-0.98691 0.34542,-3.25681 0.29607,-1.97382 0.29607,-2.51662 0,-0.39476 -0.2714,-0.39476 -0.32074,0 -0.91289,0.83887 -0.59215,0.8142 -1.18429,2.1712 -0.59215,1.35701 -0.96224,2.86205 -0.2714,1.15962 -0.64149,1.57905 -0.34542,0.39477 -1.11028,0.39477 -0.76485,0 -1.13494,-0.5428 -0.34542,-0.56748 -0.46879,-1.7271 -0.12336,-1.15962 -0.12336,-3.40484 0,-3.79961 0.76486,-7.91996 0.78952,-4.120351 2.29456,-6.908373 1.52971,-2.812696 3.65157,-2.812696 1.13495,0 1.82579,0.986911 0.71551,0.962238 0.71551,2.516622 0,2.49195 -1.4557,5.181286 -1.45569,2.66465 -4.73717,6.24221 -0.074,1.28298 -0.074,2.63998 0.81421,-2.09718 1.80112,-3.40484 1.01158,-1.33233 1.97382,-1.8998 0.98691,-0.56748 1.80111,-0.56748 z m -2.36859,-9.252285 q -0.44411,0 -0.98691,1.282984 -0.5428,1.258311 -1.06092,3.429515 -0.49346,2.146526 -0.81421,4.687826 1.52972,-1.80111 2.51663,-3.92297 1.01158,-2.121859 1.01158,-3.848952 0,-0.789529 -0.17271,-1.208966 -0.17271,-0.419437 -0.49346,-0.419437 z" />
        </g>
        <g
           aria-label="High"
           style="font-style:normal;font-weight:normal;font-size:24.67276764px;line-height:1.25;font-family:sans-serif;letter-spacing:0px;word-spacing:0px;fill:url(#linearGradient4680);fill-opacity:1;stroke:none;stroke-width:5.29166651;stroke-miterlimit:4;stroke-dasharray:none;stroke-opacity:1;paint-order:stroke fill markers"
           id="text4635"
           transform="translate(-1.2027129,-0.13363476)">
          <path
             d="m 240.7315,109.13935 q 0.32075,0 0.49346,0.29607 0.19738,0.29607 0.19738,0.8142 0,0.96224 -0.46878,1.52971 -2.44261,2.98541 -5.20596,2.98541 -2.39326,0 -3.82428,-1.85046 -1.43102,-1.85046 -1.43102,-5.30465 0,-0.83887 0.074,-1.67774 -1.6284,0.29607 -3.55288,0.44411 -1.28298,0.0987 -1.75176,0.12336 -0.49346,2.51662 -1.38168,6.16819 -0.51813,2.14653 -1.97382,2.14653 -1.57906,0 -1.57906,-1.43102 0,-0.32074 0.12337,-0.88822 0.83887,-3.38017 1.33233,-5.72408 l -1.1843,0.0494 q -0.8142,0 -1.18429,-0.27141 -0.37009,-0.29607 -0.37009,-0.93756 0,-0.8142 0.46878,-1.18429 0.46878,-0.39477 1.55439,-0.44411 l 1.30765,-0.0494 q 0.64149,-3.47886 0.64149,-5.304644 0,-1.15962 -0.34541,-1.579057 -0.34542,-0.419437 -0.9129,-0.419437 -1.72709,0 -3.89829,2.886714 -0.32075,0.419437 -0.71551,0.419437 -0.34542,0 -0.59215,-0.320746 -0.24673,-0.320746 -0.24673,-0.814201 0,-0.764856 0.61682,-1.628403 1.0856,-1.505039 2.73868,-2.467277 1.65307,-0.98691 3.35549,-0.98691 1.60373,0 2.46728,1.110274 0.88822,1.085602 0.88822,3.404842 0,2.047838 -0.59215,5.551368 l 2.41794,-0.12336 q 1.55438,-0.074 2.66465,-0.24673 0.44411,-2.714 1.35701,-5.082587 0.91289,-2.368585 2.26989,-3.848951 1.357,-1.480367 3.03475,-1.480367 1.23364,0 1.94915,0.986911 0.71551,0.962238 0.71551,2.541295 0,6.118849 -6.24221,8.487429 -0.074,0.98691 -0.074,2.04784 0,2.59064 0.64149,3.67625 0.6415,1.0856 1.80112,1.0856 1.01158,0 1.85045,-0.51813 0.83888,-0.5428 1.89981,-1.82579 0.29607,-0.34541 0.66616,-0.34541 z m -3.33082,-13.989464 q -0.5428,0 -1.15962,0.986911 -0.59215,0.986911 -1.13495,2.689332 -0.5428,1.702421 -0.86355,3.725591 1.97383,-0.8142 2.91139,-2.31924 0.93757,-1.505042 0.93757,-3.873628 0,-0.567474 -0.19739,-0.88822 -0.19738,-0.320746 -0.49345,-0.320746 z"
             style="font-style:normal;font-variant:normal;font-weight:normal;font-stretch:normal;font-family:Pacifico;-inkscape-font-specification:Pacifico;fill:url(#linearGradient5534);fill-opacity:1;stroke:none;stroke-width:5.29166651;stroke-miterlimit:4;stroke-dasharray:none;stroke-opacity:1;paint-order:stroke fill markers"
             id="path4649"
             inkscape:connector-curvature="0" />
          <path
             d="m 242.65713,101.51546 q -1.03625,0 -1.55438,-0.46878 -0.51813,-0.49346 -0.51813,-1.357005 0,-0.863546 0.66617,-1.43102 0.69083,-0.592146 1.70242,-0.592146 0.91289,0 1.48036,0.444109 0.56748,0.44411 0.56748,1.258312 0,0.98691 -0.64149,1.57906 -0.6415,0.56747 -1.70243,0.56747 z m -0.19738,13.24928 q -1.60373,0 -2.34391,-1.13495 -0.71551,-1.13495 -0.71551,-3.01008 0,-1.11027 0.2714,-2.83737 0.29607,-1.75176 0.74018,-3.2568 0.22206,-0.78953 0.59215,-1.0856 0.37009,-0.29608 1.18429,-0.29608 1.25831,0 1.25831,0.83888 0,0.61682 -0.46878,2.86204 -0.59215,2.714 -0.59215,3.67624 0,0.74018 0.19739,1.13495 0.19738,0.39476 0.66616,0.39476 0.44411,0 1.11028,-0.61682 0.66616,-0.61682 1.77643,-1.94915 0.29608,-0.34541 0.66617,-0.34541 0.32075,0 0.49346,0.29607 0.19738,0.29607 0.19738,0.8142 0,0.98691 -0.46879,1.52971 -2.4426,2.98541 -4.56446,2.98541 z"
             style="font-style:normal;font-variant:normal;font-weight:normal;font-stretch:normal;font-family:Pacifico;-inkscape-font-specification:Pacifico;fill:url(#linearGradient5536);fill-opacity:1;stroke:none;stroke-width:5.29166651;stroke-miterlimit:4;stroke-dasharray:none;stroke-opacity:1;paint-order:stroke fill markers"
             id="path4651"
             inkscape:connector-curvature="0" />
          <path
             d="m 258.12927,109.18869 q 0.32075,0 0.49346,0.32075 0.19738,0.29607 0.19738,0.76485 0,0.56748 -0.17271,0.88822 -0.17271,0.32075 -0.5428,0.56748 -2.12186,1.43102 -3.10877,2.12185 l -1.57906,1.06093 q -0.93756,5.10727 -2.46727,8.01865 -1.50504,2.93606 -3.84895,2.93606 -1.25832,0 -2.04784,-0.78953 -0.78953,-0.76485 -0.78953,-2.02316 0,-1.75177 1.38167,-3.77494 1.38168,-1.99849 5.18128,-4.93455 l 0.14804,-0.96224 q -0.41944,0.66617 -1.11027,1.03626 -0.66617,0.34542 -1.33233,0.34542 -1.52972,0 -2.44261,-1.11028 -0.91289,-1.11027 -0.91289,-2.91138 0,-1.97383 0.91289,-3.72559 0.91289,-1.77644 2.41793,-2.83737 1.52971,-1.0856 3.23214,-1.0856 0.5428,0 0.71551,0.22205 0.19738,0.19738 0.32074,0.74019 0.46878,-0.0987 1.0856,-0.0987 0.61682,0 0.86355,0.19739 0.2714,0.17271 0.2714,0.71551 0,0.29607 -0.0247,0.46878 -0.0987,0.76486 -0.61682,3.87362 -0.0987,0.59215 -0.22206,1.30766 -0.0987,0.69084 -0.22205,1.48037 1.8998,-1.48037 3.65157,-2.61532 0.32075,-0.19738 0.56747,-0.19738 z m -8.70948,3.0841 q 0.56747,0 1.0856,-0.69084 0.51813,-0.69084 0.74018,-1.97382 l 0.78953,-4.21905 q -1.01158,0.0247 -1.87513,0.78953 -0.86355,0.74019 -1.38168,1.97382 -0.51812,1.23364 -0.51812,2.61532 0,0.76485 0.29607,1.13495 0.32074,0.37009 0.86355,0.37009 z m -2.04784,11.20143 q 0.61682,0 1.38167,-1.48036 0.78953,-1.48037 1.50504,-4.7125 -1.8998,1.6284 -2.73868,2.93606 -0.83887,1.30765 -0.83887,2.29457 0,0.41943 0.14804,0.69083 0.1727,0.2714 0.5428,0.2714 z"
             style="font-style:normal;font-variant:normal;font-weight:normal;font-stretch:normal;font-family:Pacifico;-inkscape-font-specification:Pacifico;fill:url(#linearGradient5538);fill-opacity:1;stroke:none;stroke-width:5.29166651;stroke-miterlimit:4;stroke-dasharray:none;stroke-opacity:1;paint-order:stroke fill markers"
             id="path4653"
             inkscape:connector-curvature="0" />
          <path
             d="m 266.03728,103.14386 q 0.78953,0 1.18429,0.41944 0.41944,0.39476 0.41944,1.18429 0,0.64149 -0.2714,2.41793 -0.24673,1.50504 -0.39476,2.86205 -0.14804,1.33232 -0.14804,2.9854 0,0.93757 -0.39477,1.357 -0.37009,0.39477 -1.23363,0.39477 -0.81421,0 -1.1843,-0.41944 -0.37009,-0.41944 -0.37009,-1.25831 0,-0.98691 0.34542,-3.25681 0.29607,-1.97382 0.29607,-2.51662 0,-0.39476 -0.2714,-0.39476 -0.32074,0 -0.91289,0.83887 -0.59215,0.8142 -1.18429,2.1712 -0.59215,1.35701 -0.96224,2.86205 -0.2714,1.15962 -0.64149,1.57905 -0.34542,0.39477 -1.11028,0.39477 -0.76485,0 -1.13494,-0.5428 -0.34542,-0.56748 -0.46879,-1.7271 -0.12336,-1.15962 -0.12336,-3.40484 0,-3.79961 0.76486,-7.91996 0.78952,-4.120351 2.29456,-6.908373 1.52971,-2.812696 3.65157,-2.812696 1.13495,0 1.82579,0.986911 0.71551,0.962238 0.71551,2.516622 0,2.49195 -1.4557,5.181286 -1.45569,2.66465 -4.73717,6.24221 -0.074,1.28298 -0.074,2.63998 0.81421,-2.09718 1.80112,-3.40484 1.01158,-1.33233 1.97382,-1.8998 0.98691,-0.56748 1.80111,-0.56748 z m -2.36859,-9.252285 q -0.44411,0 -0.98691,1.282984 -0.5428,1.258311 -1.06092,3.429515 -0.49346,2.146526 -0.81421,4.687826 1.52972,-1.80111 2.51663,-3.92297 1.01158,-2.121859 1.01158,-3.848952 0,-0.789529 -0.17271,-1.208966 -0.17271,-0.419437 -0.49346,-0.419437 z"
             style="font-style:normal;font-variant:normal;font-weight:normal;font-stretch:normal;font-family:Pacifico;-inkscape-font-specification:Pacifico;fill:url(#linearGradient5540);fill-opacity:1;stroke:none;stroke-width:5.29166651;stroke-miterlimit:4;stroke-dasharray:none;stroke-opacity:1;paint-order:stroke fill markers"
             id="path4655"
             inkscape:connector-curvature="0" />
        </g>
      </g>
      <g
         id="g5022">
        <g
           id="g5010"
           style="font-style:normal;font-weight:normal;font-size:48.08950806px;line-height:1.25;font-family:sans-serif;letter-spacing:0px;word-spacing:0px;fill:#545600;fill-opacity:1;stroke:none;stroke-width:1.20223773"
           aria-label="Same"
           transform="translate(0,4.2333335)">
          <path
             id="path5002"
             style="font-style:normal;font-variant:normal;font-weight:normal;font-stretch:normal;font-family:Pacifico;-inkscape-font-specification:Pacifico;fill:#545600;fill-opacity:1;stroke-width:1.20223773"
             d="m 221.91506,159.26867 q -6.39591,0 -10.24307,-2.40447 -3.84716,-2.45257 -3.84716,-7.45388 0,-2.64492 0.9137,-4.03951 0.9137,-1.3946 2.69302,-1.3946 1.29841,0 2.11593,0.67325 0.81753,0.67326 0.81753,1.73122 0,0.96179 -0.14427,1.68314 0,0.19236 -0.0962,0.67325 -0.0481,0.4809 -0.0481,1.00988 0,2.16403 2.16403,3.222 2.21211,1.05797 6.15545,1.05797 4.08761,0 6.39591,-1.44269 2.30829,-1.49077 2.30829,-4.1357 0,-1.63504 -1.05797,-2.78919 -1.05796,-1.20224 -2.64492,-1.97167 -1.58695,-0.81752 -4.47232,-1.97167 -3.70289,-1.44268 -6.05928,-2.7411 -2.3083,-1.29842 -3.99143,-3.51053 -1.63504,-2.26021 -1.63504,-5.57839 0,-3.46244 1.8274,-6.15545 1.87549,-2.69302 5.33793,-4.18379 3.51054,-1.49078 8.22331,-1.49078 3.51053,0 6.44399,1.05797 2.93346,1.00988 4.66469,3.12582 1.77931,2.11594 1.77931,5.19367 0,3.02964 -0.9137,4.5685 -0.9137,1.53887 -2.69302,1.53887 -1.25032,0 -2.11593,-0.76944 -0.81753,-0.76943 -0.81753,-1.8274 0,-0.9137 0.14427,-1.68313 0.14427,-1.44269 0.14427,-1.8274 0,-2.01976 -1.97167,-3.07773 -1.97167,-1.05797 -4.90513,-1.05797 -4.1357,0 -6.34781,1.53887 -2.16403,1.49077 -2.16403,4.23187 0,1.8274 1.10606,3.12582 1.15415,1.29842 2.83728,2.16403 1.68313,0.86561 4.71277,2.06785 3.6548,1.49077 5.86692,2.69301 2.21212,1.20224 3.75098,3.27009 1.58696,2.06784 1.58696,5.09748 0,5.67457 -4.32806,8.75229 -4.27997,3.02964 -11.49339,3.02964 z"
             inkscape:connector-curvature="0" />
          <path
             id="path5004"
             style="font-style:normal;font-variant:normal;font-weight:normal;font-stretch:normal;font-family:Pacifico;-inkscape-font-specification:Pacifico;fill:#545600;fill-opacity:1;stroke-width:1.20223773"
             d="m 247.75641,159.1244 q -2.98155,0 -4.76087,-2.16402 -1.77931,-2.16403 -1.77931,-5.67457 0,-3.84716 1.77931,-7.26151 1.77932,-3.46245 4.71278,-5.53029 2.98155,-2.11594 6.29972,-2.11594 1.05797,0 1.3946,0.4328 0.38471,0.38472 0.62516,1.44269 1.00988,-0.19236 2.11594,-0.19236 2.35639,0 2.35639,1.68313 0,1.00988 -0.72135,4.80895 -1.10606,5.5303 -1.10606,7.69432 0,0.72135 0.33663,1.15415 0.38472,0.43281 0.96179,0.43281 0.9137,0 2.21212,-1.15415 1.29842,-1.20224 3.51053,-3.84716 0.57708,-0.67325 1.29842,-0.67325 0.62516,0 0.96179,0.57707 0.38472,0.57707 0.38472,1.58695 0,1.92358 -0.91371,2.98155 -1.97167,2.45257 -4.18378,4.1357 -2.21212,1.68313 -4.27997,1.68313 -1.58695,0 -2.93346,-1.05796 -1.29842,-1.10606 -1.97167,-2.98155 -2.50065,4.03951 -6.29972,4.03951 z m 1.73122,-4.85704 q 1.05797,0 2.01976,-1.25032 0.96179,-1.25033 1.39459,-3.31818 l 1.77932,-8.84847 q -2.01976,0.0481 -3.75099,1.53887 -1.68313,1.44268 -2.69301,3.84716 -1.00988,2.40447 -1.00988,5.09748 0,1.49078 0.57708,2.21212 0.62516,0.72134 1.68313,0.72134 z"
             inkscape:connector-curvature="0" />
          <path
             id="path5006"
             style="font-style:normal;font-variant:normal;font-weight:normal;font-stretch:normal;font-family:Pacifico;-inkscape-font-specification:Pacifico;fill:#545600;fill-opacity:1;stroke-width:1.20223773"
             d="m 267.89163,159.1244 q -1.8274,0 -2.59683,-1.92358 -0.72134,-1.92358 -0.72134,-6.15545 0,-6.25164 1.77931,-11.87811 0.43281,-1.3946 1.3946,-2.01976 1.00988,-0.67325 2.78919,-0.67325 0.96179,0 1.3465,0.24044 0.38472,0.24045 0.38472,0.9137 0,0.76944 -0.72134,3.46245 -0.4809,1.92358 -0.76943,3.36626 -0.28854,1.3946 -0.4809,3.51054 1.29842,-3.75098 3.07773,-6.34782 1.8274,-2.59683 3.70289,-3.84716 1.92358,-1.29841 3.60671,-1.29841 1.68314,0 2.35639,0.76943 0.72134,0.76943 0.72134,2.35638 0,1.53887 -0.9137,5.57839 -0.38471,1.73122 -0.52898,2.59683 2.40447,-5.91501 5.33793,-8.60802 2.93346,-2.69301 5.48221,-2.69301 3.12581,0 3.12581,3.12581 0,1.87549 -1.05796,6.78062 -0.91371,4.18379 -0.91371,5.5303 0,1.92358 1.3946,1.92358 0.96179,0 2.26021,-1.15415 1.3465,-1.20224 3.55862,-3.84716 0.57708,-0.67325 1.29842,-0.67325 0.62516,0 0.96179,0.57707 0.38471,0.57707 0.38471,1.58695 0,1.92358 -0.9137,2.98155 -2.06785,2.54875 -4.47232,4.18379 -2.35639,1.63504 -5.38603,1.63504 -2.45256,0 -3.70289,-1.39459 -1.25033,-1.44269 -1.25033,-4.1357 0,-1.34651 0.67326,-4.80895 0.62516,-3.02964 0.62516,-4.18379 0,-0.76943 -0.52898,-0.76943 -0.62517,0 -1.77931,1.63504 -1.15415,1.58696 -2.3083,4.23188 -1.15415,2.64492 -1.87549,5.57838 -0.52899,2.3083 -1.25033,3.07773 -0.67325,0.76943 -2.21212,0.76943 -1.58695,0 -2.40447,-1.49077 -0.76943,-1.53886 -0.76943,-3.70289 0,-1.8274 0.48089,-5.28985 0.38472,-3.07773 0.38472,-4.03952 0,-0.76943 -0.52899,-0.76943 -0.72134,0 -1.8274,1.73122 -1.10606,1.73123 -2.16403,4.42424 -1.00988,2.69301 -1.63504,5.28984 -0.52898,2.26021 -1.25033,3.07773 -0.67325,0.76943 -2.16403,0.76943 z"
             inkscape:connector-curvature="0" />
          <path
             id="path5008"
             style="font-style:normal;font-variant:normal;font-weight:normal;font-stretch:normal;font-family:Pacifico;-inkscape-font-specification:Pacifico;fill:#545600;fill-opacity:1;stroke-width:1.20223773"
             d="m 317.47868,149.60268 q 0.62516,0 0.96179,0.57708 0.38471,0.57707 0.38471,1.58695 0,1.73122 -0.81752,2.98155 -1.3465,2.06785 -3.55862,3.222 -2.16403,1.15414 -5.19367,1.15414 -4.61659,0 -7.16533,-2.7411 -2.54875,-2.78919 -2.54875,-7.50196 0,-3.31818 1.3946,-6.15546 1.39459,-2.88537 3.84716,-4.5685 2.50065,-1.68313 5.62647,-1.68313 2.78919,0 4.47232,1.68313 1.68314,1.63504 1.68314,4.47232 0,3.31818 -2.40448,5.72265 -2.35638,2.35639 -8.07904,3.75099 1.15415,2.21211 3.89526,2.21211 1.97166,0 3.22199,-0.9137 1.29842,-0.9137 2.98155,-3.07773 0.57708,-0.72134 1.29842,-0.72134 z m -7.88668,-8.41566 q -1.77931,0 -3.02964,2.06785 -1.20224,2.06785 -1.20224,5.00131 v 0.0962 q 2.83728,-0.67325 4.47233,-2.01975 1.63504,-1.34651 1.63504,-3.12582 0,-0.9137 -0.52898,-1.44269 -0.4809,-0.57707 -1.34651,-0.57707 z"
             inkscape:connector-curvature="0" />
        </g>
        <g
           aria-label="Same"
           style="font-style:normal;font-weight:normal;font-size:48.08950806px;line-height:1.25;font-family:sans-serif;letter-spacing:0px;word-spacing:0px;fill:url(#linearGradient4944);fill-opacity:1;stroke:none;stroke-width:1.32291663;stroke-miterlimit:4;stroke-dasharray:none;stroke-opacity:1;paint-order:stroke fill markers"
           id="text4643">
          <path
             d="m 221.91506,159.26867 q -6.39591,0 -10.24307,-2.40447 -3.84716,-2.45257 -3.84716,-7.45388 0,-2.64492 0.9137,-4.03951 0.9137,-1.3946 2.69302,-1.3946 1.29841,0 2.11593,0.67325 0.81753,0.67326 0.81753,1.73122 0,0.96179 -0.14427,1.68314 0,0.19236 -0.0962,0.67325 -0.0481,0.4809 -0.0481,1.00988 0,2.16403 2.16403,3.222 2.21211,1.05797 6.15545,1.05797 4.08761,0 6.39591,-1.44269 2.30829,-1.49077 2.30829,-4.1357 0,-1.63504 -1.05797,-2.78919 -1.05796,-1.20224 -2.64492,-1.97167 -1.58695,-0.81752 -4.47232,-1.97167 -3.70289,-1.44268 -6.05928,-2.7411 -2.3083,-1.29842 -3.99143,-3.51053 -1.63504,-2.26021 -1.63504,-5.57839 0,-3.46244 1.8274,-6.15545 1.87549,-2.69302 5.33793,-4.18379 3.51054,-1.49078 8.22331,-1.49078 3.51053,0 6.44399,1.05797 2.93346,1.00988 4.66469,3.12582 1.77931,2.11594 1.77931,5.19367 0,3.02964 -0.9137,4.5685 -0.9137,1.53887 -2.69302,1.53887 -1.25032,0 -2.11593,-0.76944 -0.81753,-0.76943 -0.81753,-1.8274 0,-0.9137 0.14427,-1.68313 0.14427,-1.44269 0.14427,-1.8274 0,-2.01976 -1.97167,-3.07773 -1.97167,-1.05797 -4.90513,-1.05797 -4.1357,0 -6.34781,1.53887 -2.16403,1.49077 -2.16403,4.23187 0,1.8274 1.10606,3.12582 1.15415,1.29842 2.83728,2.16403 1.68313,0.86561 4.71277,2.06785 3.6548,1.49077 5.86692,2.69301 2.21212,1.20224 3.75098,3.27009 1.58696,2.06784 1.58696,5.09748 0,5.67457 -4.32806,8.75229 -4.27997,3.02964 -11.49339,3.02964 z"
             style="font-style:normal;font-variant:normal;font-weight:normal;font-stretch:normal;font-family:Pacifico;-inkscape-font-specification:Pacifico;fill:url(#linearGradient5542);fill-opacity:1;stroke:none;stroke-width:1.32291663;stroke-miterlimit:4;stroke-dasharray:none;stroke-opacity:1;paint-order:stroke fill markers"
             id="path4665"
             inkscape:connector-curvature="0" />
          <path
             d="m 247.75641,159.1244 q -2.98155,0 -4.76087,-2.16402 -1.77931,-2.16403 -1.77931,-5.67457 0,-3.84716 1.77931,-7.26151 1.77932,-3.46245 4.71278,-5.53029 2.98155,-2.11594 6.29972,-2.11594 1.05797,0 1.3946,0.4328 0.38471,0.38472 0.62516,1.44269 1.00988,-0.19236 2.11594,-0.19236 2.35639,0 2.35639,1.68313 0,1.00988 -0.72135,4.80895 -1.10606,5.5303 -1.10606,7.69432 0,0.72135 0.33663,1.15415 0.38472,0.43281 0.96179,0.43281 0.9137,0 2.21212,-1.15415 1.29842,-1.20224 3.51053,-3.84716 0.57708,-0.67325 1.29842,-0.67325 0.62516,0 0.96179,0.57707 0.38472,0.57707 0.38472,1.58695 0,1.92358 -0.91371,2.98155 -1.97167,2.45257 -4.18378,4.1357 -2.21212,1.68313 -4.27997,1.68313 -1.58695,0 -2.93346,-1.05796 -1.29842,-1.10606 -1.97167,-2.98155 -2.50065,4.03951 -6.29972,4.03951 z m 1.73122,-4.85704 q 1.05797,0 2.01976,-1.25032 0.96179,-1.25033 1.39459,-3.31818 l 1.77932,-8.84847 q -2.01976,0.0481 -3.75099,1.53887 -1.68313,1.44268 -2.69301,3.84716 -1.00988,2.40447 -1.00988,5.09748 0,1.49078 0.57708,2.21212 0.62516,0.72134 1.68313,0.72134 z"
             style="font-style:normal;font-variant:normal;font-weight:normal;font-stretch:normal;font-family:Pacifico;-inkscape-font-specification:Pacifico;fill:url(#linearGradient5544);fill-opacity:1;stroke:none;stroke-width:1.32291663;stroke-miterlimit:4;stroke-dasharray:none;stroke-opacity:1;paint-order:stroke fill markers"
             id="path4667"
             inkscape:connector-curvature="0" />
          <path
             d="m 267.89163,159.1244 q -1.8274,0 -2.59683,-1.92358 -0.72134,-1.92358 -0.72134,-6.15545 0,-6.25164 1.77931,-11.87811 0.43281,-1.3946 1.3946,-2.01976 1.00988,-0.67325 2.78919,-0.67325 0.96179,0 1.3465,0.24044 0.38472,0.24045 0.38472,0.9137 0,0.76944 -0.72134,3.46245 -0.4809,1.92358 -0.76943,3.36626 -0.28854,1.3946 -0.4809,3.51054 1.29842,-3.75098 3.07773,-6.34782 1.8274,-2.59683 3.70289,-3.84716 1.92358,-1.29841 3.60671,-1.29841 1.68314,0 2.35639,0.76943 0.72134,0.76943 0.72134,2.35638 0,1.53887 -0.9137,5.57839 -0.38471,1.73122 -0.52898,2.59683 2.40447,-5.91501 5.33793,-8.60802 2.93346,-2.69301 5.48221,-2.69301 3.12581,0 3.12581,3.12581 0,1.87549 -1.05796,6.78062 -0.91371,4.18379 -0.91371,5.5303 0,1.92358 1.3946,1.92358 0.96179,0 2.26021,-1.15415 1.3465,-1.20224 3.55862,-3.84716 0.57708,-0.67325 1.29842,-0.67325 0.62516,0 0.96179,0.57707 0.38471,0.57707 0.38471,1.58695 0,1.92358 -0.9137,2.98155 -2.06785,2.54875 -4.47232,4.18379 -2.35639,1.63504 -5.38603,1.63504 -2.45256,0 -3.70289,-1.39459 -1.25033,-1.44269 -1.25033,-4.1357 0,-1.34651 0.67326,-4.80895 0.62516,-3.02964 0.62516,-4.18379 0,-0.76943 -0.52898,-0.76943 -0.62517,0 -1.77931,1.63504 -1.15415,1.58696 -2.3083,4.23188 -1.15415,2.64492 -1.87549,5.57838 -0.52899,2.3083 -1.25033,3.07773 -0.67325,0.76943 -2.21212,0.76943 -1.58695,0 -2.40447,-1.49077 -0.76943,-1.53886 -0.76943,-3.70289 0,-1.8274 0.48089,-5.28985 0.38472,-3.07773 0.38472,-4.03952 0,-0.76943 -0.52899,-0.76943 -0.72134,0 -1.8274,1.73122 -1.10606,1.73123 -2.16403,4.42424 -1.00988,2.69301 -1.63504,5.28984 -0.52898,2.26021 -1.25033,3.07773 -0.67325,0.76943 -2.16403,0.76943 z"
             style="font-style:normal;font-variant:normal;font-weight:normal;font-stretch:normal;font-family:Pacifico;-inkscape-font-specification:Pacifico;fill:url(#linearGradient5546);fill-opacity:1;stroke:none;stroke-width:1.32291663;stroke-miterlimit:4;stroke-dasharray:none;stroke-opacity:1;paint-order:stroke fill markers"
             id="path4669"
             inkscape:connector-curvature="0" />
          <path
             d="m 317.47868,149.60268 q 0.62516,0 0.96179,0.57708 0.38471,0.57707 0.38471,1.58695 0,1.73122 -0.81752,2.98155 -1.3465,2.06785 -3.55862,3.222 -2.16403,1.15414 -5.19367,1.15414 -4.61659,0 -7.16533,-2.7411 -2.54875,-2.78919 -2.54875,-7.50196 0,-3.31818 1.3946,-6.15546 1.39459,-2.88537 3.84716,-4.5685 2.50065,-1.68313 5.62647,-1.68313 2.78919,0 4.47232,1.68313 1.68314,1.63504 1.68314,4.47232 0,3.31818 -2.40448,5.72265 -2.35638,2.35639 -8.07904,3.75099 1.15415,2.21211 3.89526,2.21211 1.97166,0 3.22199,-0.9137 1.29842,-0.9137 2.98155,-3.07773 0.57708,-0.72134 1.29842,-0.72134 z m -7.88668,-8.41566 q -1.77931,0 -3.02964,2.06785 -1.20224,2.06785 -1.20224,5.00131 v 0.0962 q 2.83728,-0.67325 4.47233,-2.01975 1.63504,-1.34651 1.63504,-3.12582 0,-0.9137 -0.52898,-1.44269 -0.4809,-0.57707 -1.34651,-0.57707 z"
             style="font-style:normal;font-variant:normal;font-weight:normal;font-stretch:normal;font-family:Pacifico;-inkscape-font-specification:Pacifico;fill:url(#linearGradient5548);fill-opacity:1;stroke:none;stroke-width:1.32291663;stroke-miterlimit:4;stroke-dasharray:none;stroke-opacity:1;paint-order:stroke fill markers"
             id="path4671"
             inkscape:connector-curvature="0" />
        </g>
      </g>
      <g
         id="g5000">
        <g
           transform="translate(-1.2027129,1.9830319)"
           id="g4990"
           style="font-style:normal;font-weight:normal;font-size:24.67276764px;line-height:1.25;font-family:sans-serif;letter-spacing:0px;word-spacing:0px;fill:#545600;fill-opacity:1;stroke:none;stroke-width:0.6168192"
           aria-label="Low">
          <path
             inkscape:connector-curvature="0"
             id="path4984"
             style="font-style:normal;font-variant:normal;font-weight:normal;font-stretch:normal;font-family:Pacifico;-inkscape-font-specification:Pacifico;fill:#545600;fill-opacity:1;stroke-width:0.6168192"
             d="m 285.12285,125.01435 q 0.32074,0 0.49345,0.29607 0.19738,0.29607 0.19738,0.8142 0,0.96224 -0.46878,1.52971 -1.38167,1.65308 -2.68933,2.31924 -1.28299,0.66617 -3.10877,0.66617 -1.28298,0 -2.36859,-0.32075 -1.0856,-0.32075 -2.63998,-0.96224 -1.40635,-0.61682 -2.71401,-1.01158 -1.25831,2.29457 -3.77493,2.29457 -1.38167,0 -2.19588,-0.61682 -0.83887,-0.64149 -0.83887,-1.62841 0,-1.20896 1.15962,-1.99849 1.15962,-0.8142 3.0841,-0.8142 h 0.32074 l 0.44411,-7.17978 q 0.14804,-2.46727 0.88822,-4.071 0.74018,-1.60373 2.04784,-2.73868 1.13495,-0.98691 2.59064,-1.48037 1.45569,-0.51812 3.0841,-0.51812 2.66466,0 4.09568,1.38167 1.43102,1.38168 1.43102,3.60222 0,1.50504 -0.5428,2.44261 -0.5428,0.91289 -1.50504,0.91289 -0.69084,0 -1.0856,-0.32074 -0.39477,-0.34542 -0.39477,-0.96224 0,-0.22206 0.0987,-0.8142 0.14804,-0.69084 0.14804,-1.23364 0,-1.03626 -0.61682,-1.62841 -0.59215,-0.61681 -1.82578,-0.61681 -2.17121,0 -3.3555,1.43102 -1.18429,1.40634 -1.50504,4.44109 l -0.56747,5.60072 q -0.12337,1.1843 -0.32075,2.04784 1.57906,0.2714 3.94764,0.86355 1.38168,0.34542 2.12186,0.49345 0.74018,0.14804 1.30766,0.14804 1.43102,0 2.4426,-0.46878 1.03626,-0.49346 1.94915,-1.55439 0.29607,-0.34541 0.66617,-0.34541 z" />
          <path
             inkscape:connector-curvature="0"
             id="path4986"
             style="font-style:normal;font-variant:normal;font-weight:normal;font-stretch:normal;font-family:Pacifico;-inkscape-font-specification:Pacifico;fill:#545600;fill-opacity:1;stroke-width:0.6168192"
             d="m 298.39448,122.94183 q 0.32075,0 0.49346,0.32075 0.17271,0.32074 0.17271,0.8142 0,1.18429 -0.71551,1.40635 -1.48037,0.51813 -3.25681,0.59214 -0.46878,2.07252 -1.85046,3.33083 -1.38167,1.23364 -3.13344,1.23364 -1.48036,0 -2.54129,-0.71551 -1.03626,-0.71551 -1.57906,-1.89981 -0.5428,-1.18429 -0.5428,-2.56596 0,-1.87514 0.71551,-3.33083 0.71551,-1.48036 1.97382,-2.29457 1.25831,-0.83887 2.78802,-0.83887 1.87513,0 3.01008,1.30766 1.15962,1.28298 1.357,3.18278 1.15962,-0.074 2.76335,-0.49345 0.19738,-0.0494 0.34542,-0.0494 z m -8.09267,5.08259 q 0.78953,0 1.35701,-0.64149 0.59214,-0.64149 0.78952,-1.85046 -0.76485,-0.51812 -1.18429,-1.357 -0.39476,-0.83887 -0.39476,-1.77644 0,-0.39476 0.074,-0.78953 h -0.12337 q -0.98691,0 -1.65307,0.96224 -0.6415,0.93757 -0.6415,2.66466 0,1.357 0.51813,2.07251 0.5428,0.71551 1.25831,0.71551 z" />
          <path
             inkscape:connector-curvature="0"
             id="path4988"
             style="font-style:normal;font-variant:normal;font-weight:normal;font-stretch:normal;font-family:Pacifico;-inkscape-font-specification:Pacifico;fill:#545600;fill-opacity:1;stroke-width:0.6168192"
             d="m 311.96296,118.99419 q 1.357,0 1.357,0.86355 0,0.29607 -0.19738,0.8142 -1.99849,4.66315 -3.77493,7.52519 -0.88822,1.40635 -1.60373,1.92448 -0.71551,0.51813 -1.62841,0.51813 -0.98691,0 -1.48036,-0.76486 -0.46878,-0.76486 -0.59215,-2.51662 -0.0493,-0.64149 -0.0987,-1.92448 -0.76486,2.12186 -1.40635,3.25681 -0.61682,1.11027 -1.23364,1.52971 -0.59214,0.41944 -1.43102,0.41944 -1.01158,0 -1.60373,-0.78953 -0.56747,-0.78953 -0.71551,-2.49195 -0.29607,-3.45419 -0.29607,-6.04483 v -0.86355 q 0.0247,-0.83887 0.41944,-1.13494 0.39476,-0.32075 1.28298,-0.32075 0.64149,0 0.93757,0.29607 0.32074,0.2714 0.32074,0.93757 0,2.83737 0.34542,7.37716 0.8142,-1.7271 1.50504,-3.30615 0.69084,-1.57906 1.60373,-4.04634 0.2714,-0.74018 0.64149,-0.98691 0.39477,-0.2714 0.91289,-0.2714 0.69084,0 1.03626,0.29607 0.34542,0.2714 0.34542,0.93757 v 3.82428 q 0,2.46727 0.0247,3.55288 1.13495,-1.97383 1.85046,-3.42952 0.74018,-1.45569 1.65308,-3.92297 0.2714,-0.74018 0.71551,-0.98691 0.44411,-0.2714 1.11027,-0.2714 z" />
        </g>
        <g
           aria-label="Low"
           style="font-style:normal;font-weight:normal;font-size:24.67276764px;line-height:1.25;font-family:sans-serif;letter-spacing:0px;word-spacing:0px;fill:url(#linearGradient4952);fill-opacity:1;stroke:none;stroke-width:0.6168192"
           id="text4647"
           transform="translate(-1.2027129,-0.13363476)">
          <path
             d="m 285.12285,125.01435 q 0.32074,0 0.49345,0.29607 0.19738,0.29607 0.19738,0.8142 0,0.96224 -0.46878,1.52971 -1.38167,1.65308 -2.68933,2.31924 -1.28299,0.66617 -3.10877,0.66617 -1.28298,0 -2.36859,-0.32075 -1.0856,-0.32075 -2.63998,-0.96224 -1.40635,-0.61682 -2.71401,-1.01158 -1.25831,2.29457 -3.77493,2.29457 -1.38167,0 -2.19588,-0.61682 -0.83887,-0.64149 -0.83887,-1.62841 0,-1.20896 1.15962,-1.99849 1.15962,-0.8142 3.0841,-0.8142 h 0.32074 l 0.44411,-7.17978 q 0.14804,-2.46727 0.88822,-4.071 0.74018,-1.60373 2.04784,-2.73868 1.13495,-0.98691 2.59064,-1.48037 1.45569,-0.51812 3.0841,-0.51812 2.66466,0 4.09568,1.38167 1.43102,1.38168 1.43102,3.60222 0,1.50504 -0.5428,2.44261 -0.5428,0.91289 -1.50504,0.91289 -0.69084,0 -1.0856,-0.32074 -0.39477,-0.34542 -0.39477,-0.96224 0,-0.22206 0.0987,-0.8142 0.14804,-0.69084 0.14804,-1.23364 0,-1.03626 -0.61682,-1.62841 -0.59215,-0.61681 -1.82578,-0.61681 -2.17121,0 -3.3555,1.43102 -1.18429,1.40634 -1.50504,4.44109 l -0.56747,5.60072 q -0.12337,1.1843 -0.32075,2.04784 1.57906,0.2714 3.94764,0.86355 1.38168,0.34542 2.12186,0.49345 0.74018,0.14804 1.30766,0.14804 1.43102,0 2.4426,-0.46878 1.03626,-0.49346 1.94915,-1.55439 0.29607,-0.34541 0.66617,-0.34541 z"
             style="font-style:normal;font-variant:normal;font-weight:normal;font-stretch:normal;font-family:Pacifico;-inkscape-font-specification:Pacifico;fill:url(#linearGradient5550);fill-opacity:1;stroke-width:0.6168192"
             id="path4658"
             inkscape:connector-curvature="0" />
          <path
             d="m 298.39448,122.94183 q 0.32075,0 0.49346,0.32075 0.17271,0.32074 0.17271,0.8142 0,1.18429 -0.71551,1.40635 -1.48037,0.51813 -3.25681,0.59214 -0.46878,2.07252 -1.85046,3.33083 -1.38167,1.23364 -3.13344,1.23364 -1.48036,0 -2.54129,-0.71551 -1.03626,-0.71551 -1.57906,-1.89981 -0.5428,-1.18429 -0.5428,-2.56596 0,-1.87514 0.71551,-3.33083 0.71551,-1.48036 1.97382,-2.29457 1.25831,-0.83887 2.78802,-0.83887 1.87513,0 3.01008,1.30766 1.15962,1.28298 1.357,3.18278 1.15962,-0.074 2.76335,-0.49345 0.19738,-0.0494 0.34542,-0.0494 z m -8.09267,5.08259 q 0.78953,0 1.35701,-0.64149 0.59214,-0.64149 0.78952,-1.85046 -0.76485,-0.51812 -1.18429,-1.357 -0.39476,-0.83887 -0.39476,-1.77644 0,-0.39476 0.074,-0.78953 h -0.12337 q -0.98691,0 -1.65307,0.96224 -0.6415,0.93757 -0.6415,2.66466 0,1.357 0.51813,2.07251 0.5428,0.71551 1.25831,0.71551 z"
             style="font-style:normal;font-variant:normal;font-weight:normal;font-stretch:normal;font-family:Pacifico;-inkscape-font-specification:Pacifico;fill:url(#linearGradient5552);fill-opacity:1;stroke-width:0.6168192"
             id="path4660"
             inkscape:connector-curvature="0" />
          <path
             d="m 311.96296,118.99419 q 1.357,0 1.357,0.86355 0,0.29607 -0.19738,0.8142 -1.99849,4.66315 -3.77493,7.52519 -0.88822,1.40635 -1.60373,1.92448 -0.71551,0.51813 -1.62841,0.51813 -0.98691,0 -1.48036,-0.76486 -0.46878,-0.76486 -0.59215,-2.51662 -0.0493,-0.64149 -0.0987,-1.92448 -0.76486,2.12186 -1.40635,3.25681 -0.61682,1.11027 -1.23364,1.52971 -0.59214,0.41944 -1.43102,0.41944 -1.01158,0 -1.60373,-0.78953 -0.56747,-0.78953 -0.71551,-2.49195 -0.29607,-3.45419 -0.29607,-6.04483 v -0.86355 q 0.0247,-0.83887 0.41944,-1.13494 0.39476,-0.32075 1.28298,-0.32075 0.64149,0 0.93757,0.29607 0.32074,0.2714 0.32074,0.93757 0,2.83737 0.34542,7.37716 0.8142,-1.7271 1.50504,-3.30615 0.69084,-1.57906 1.60373,-4.04634 0.2714,-0.74018 0.64149,-0.98691 0.39477,-0.2714 0.91289,-0.2714 0.69084,0 1.03626,0.29607 0.34542,0.2714 0.34542,0.93757 v 3.82428 q 0,2.46727 0.0247,3.55288 1.13495,-1.97383 1.85046,-3.42952 0.74018,-1.45569 1.65308,-3.92297 0.2714,-0.74018 0.71551,-0.98691 0.44411,-0.2714 1.11027,-0.2714 z"
             style="font-style:normal;font-variant:normal;font-weight:normal;font-stretch:normal;font-family:Pacifico;-inkscape-font-specification:Pacifico;fill:url(#linearGradient5554);fill-opacity:1;stroke-width:0.6168192"
             id="path4662"
             inkscape:connector-curvature="0" />
        </g>
      </g>
    </g>
    <g
       id="g5559"
       transform="translate(-12.610085,2.1166667)">
      <path
         inkscape:connector-curvature="0"
         id="path5364"
         d="m 266.61009,171.02324 c -17.78804,0.023 -35.23943,2.71614 -50.53959,7.79888 l 0.62606,7.12661 c -10.12031,2.14976 -19.75924,5.62675 -28.36192,10.26641 l 13.2007,7.78644 -1.64246,3.00299 c 7.30067,-2.48754 14.90712,-4.10995 23.17036,-5.19807 l 2.06182,0.94946 c -9.38277,1.12254 -17.89969,2.88781 -26.05253,5.74891 l -6.6575,12.17424 c 11.81478,-6.38738 23.92951,-9.43356 38.22971,-11.00029 l -0.87838,-9.30096 c 11.57846,-2.63823 23.50269,-3.62202 36.84373,-3.64741 13.34093,0.0253 25.26526,1.00917 36.8437,3.64741 l -0.87836,9.30096 c 14.30019,1.56673 26.41491,4.61291 38.22971,11.00029 l -6.65753,-12.17424 c -8.15284,-2.8611 -16.66974,-4.62637 -26.05252,-5.74891 l 2.06184,-0.94946 c 8.26322,1.08812 15.86968,2.71053 23.17036,5.19807 l -1.64248,-3.00299 13.20069,-7.78644 c -8.60269,-4.63965 -18.24157,-8.11666 -28.3619,-10.26641 l 0.62608,-7.12661 c -15.3002,-5.08274 -32.75166,-7.77587 -50.53959,-7.79888 z m 2.52852,2.43022 3.46442,0.0598 -0.18008,10.46898 -3.46499,-0.0598 z m -5.61562,0.0326 0.12912,7.58624 4.36056,-0.074 0.0492,2.88216 -7.82554,0.13327 -0.17769,-10.46899 z m 11.0222,0.0296 2.8928,0.17295 3.80852,5.61505 0.32103,-5.36747 3.13092,0.18776 -0.62547,10.45122 -2.8928,-0.17295 -3.79491,-5.58425 -0.31984,5.33785 -3.14572,-0.18895 z m -16.51287,0.0782 0.70188,10.44707 -2.89104,0.19428 -4.4719,-5.05888 0.35835,5.33489 -3.14396,0.21146 -0.70247,-10.44648 2.89163,-0.19428 4.48849,5.08731 -0.36072,-5.3651 z m 28.76233,0.73327 8.7963,1.04009 -0.30917,2.61088 -5.35445,-0.63317 -0.15102,1.27523 4.8652,0.57572 -0.3086,2.61029 -4.8652,-0.57513 -0.15224,1.29004 5.48774,0.64916 -0.3086,2.61088 -8.92958,-1.05608 z m -45.42682,0.51886 c 0.78527,-0.01 1.52598,0.1179 2.22173,0.38441 0.92768,0.35534 1.68454,0.91273 2.27149,1.67208 0.59683,0.7581 0.95981,1.65087 1.08866,2.6784 0.13008,1.0374 2e-4,2.00213 -0.38974,2.894 -0.38006,0.89062 -0.97522,1.6278 -1.78521,2.21107 -0.81122,0.57338 -1.7598,0.92809 -2.84661,1.06437 -1.08681,0.13628 -2.09427,0.0266 -3.02194,-0.32872 -0.92892,-0.36523 -1.69237,-0.93193 -2.29044,-1.69992 -0.58819,-0.76922 -0.94733,-1.67239 -1.0774,-2.70979 -0.13009,-1.03741 -0.005,-1.99667 0.3767,-2.87742 0.39118,-0.88199 0.99288,-1.60433 1.80535,-2.16784 0.81122,-0.57338 1.7604,-0.92868 2.84721,-1.06496 0.2717,-0.0341 0.53844,-0.0523 0.8002,-0.0557 z m -0.10484,2.8946 c -0.0962,-0.002 -0.1932,0.004 -0.29201,0.016 -0.3952,0.0496 -0.7518,0.20979 -1.06911,0.48036 -0.30866,0.25949 -0.54271,0.59499 -0.70188,1.00632 -0.14928,0.41011 -0.19337,0.85686 -0.13267,1.34098 0.0607,0.48411 0.2148,0.91132 0.462,1.28175 0.25579,0.3593 0.5655,0.63166 0.92991,0.81679 0.3743,0.18387 0.7592,0.25093 1.15441,0.20138 0.39518,-0.0496 0.74248,-0.20321 1.04127,-0.4614 0.29754,-0.26813 0.51514,-0.61188 0.65331,-1.03061 0.13817,-0.41875 0.17679,-0.86989 0.11609,-1.35401 -0.0607,-0.48413 -0.20874,-0.90693 -0.44482,-1.26872 -0.23727,-0.37166 -0.53279,-0.64623 -0.88609,-0.82271 -0.26497,-0.13236 -0.54186,-0.20091 -0.83041,-0.20612 z m 25.3471,10.4986 c 18.95196,0.0338 35.22053,1.77245 51.50978,6.86777 l -0.0284,1.41206 c -15.76309,-4.72156 -33.14323,-7.03407 -51.48133,-7.06679 -18.33826,0.0328 -35.70054,2.31502 -51.46359,7.03658 l -0.0462,-1.38185 c 16.28922,-5.09533 32.55766,-6.83391 51.50979,-6.86777 z"
         style="fill:#545600;fill-opacity:1;stroke:none;stroke-width:0.26219994px;stroke-linecap:butt;stroke-linejoin:miter;stroke-opacity:1" />
      <path
         inkscape:connector-curvature="0"
         id="path5108"
         d="m 225.7298,178.64206 -8.64824,15.86369 c 3.3177,-0.98274 6.63952,-1.83017 9.98744,-2.55402 z m 81.76056,0 -1.3392,13.30967 c 3.34793,0.72385 6.66972,1.57128 9.98745,2.55402 z m -80.27387,14.7697 c -3.76209,0.80107 -7.44862,1.72713 -11.05359,2.77851 l -1.0626,1.94927 7.96294,3.66696 2.06123,0.94946 h 5.9e-4 l 3.1789,1.46418 z m 78.78541,0.0207 -1.0857,10.78765 3.17889,-1.46418 h 6.1e-4 l 2.06123,-0.94946 7.96294,-3.66696 -1.04661,-1.92025 c -3.6101,-1.05305 -7.30238,-1.98245 -11.07136,-2.7868 z"
         style="fill:#c4c939;fill-opacity:1;stroke:none;stroke-width:0.27059808px;stroke-linecap:butt;stroke-linejoin:miter;stroke-opacity:1" />
      <path
         inkscape:connector-curvature="0"
         id="path5106"
         d="m 266.61009,165.56456 c -18.94575,0.023 -37.53328,2.71614 -53.82926,7.79888 l 0.16526,1.76862 c 16.25646,-5.04958 34.78199,-7.72498 53.664,-7.74794 18.88182,0.0229 37.40752,2.69836 53.66398,7.74794 l 0.16525,-1.76862 c -16.29598,-5.08274 -34.88357,-7.77587 -53.82923,-7.79888 z m 0,3.0326 c -18.83936,0.0229 -37.32327,2.68729 -53.55324,7.71477 l 0.39092,4.17812 c -10.77899,2.14976 -21.04494,5.62675 -30.20754,10.26641 l 1.73545,0.96131 c 8.68384,-4.19616 18.29769,-7.36887 28.36073,-9.38506 l 0.11136,1.18994 c -9.64984,1.92456 -18.88566,4.91591 -27.28926,8.85021 l 11.14126,6.17004 -7.24508,12.43959 c 10.333,-4.87351 20.97402,-7.59126 33.00855,-9.17599 l -7.96294,-3.66696 c 16.28922,-5.09533 32.55771,-6.83391 51.50979,-6.86777 18.95196,0.0338 35.22053,1.77245 51.50978,6.86777 l -7.96294,3.66696 c 12.03451,1.58473 22.67557,4.30248 33.00854,9.17599 l -7.24509,-12.43959 11.14126,-6.17004 c -8.40358,-3.9343 -17.63939,-6.92566 -27.28925,-8.85021 l 0.11136,-1.18994 c 10.06304,2.01618 19.67687,5.18891 28.36072,9.38506 l 1.73547,-0.96131 c -9.16261,-4.63965 -19.42854,-8.11666 -30.20755,-10.26641 l 0.39093,-4.17812 c -16.22996,-5.02748 -34.71405,-7.69188 -53.55323,-7.71477 z m 2.52852,4.8563 3.46442,0.0598 -0.18008,10.46898 -3.46499,-0.0598 z m -5.61562,0.0326 0.12912,7.58624 4.36056,-0.074 0.0492,2.88216 -7.82554,0.13327 -0.17769,-10.46899 z m 11.0222,0.0296 2.8928,0.17295 3.80852,5.61505 0.32103,-5.36747 3.13092,0.18776 -0.62547,10.45122 -2.8928,-0.17295 -3.79491,-5.58425 -0.31984,5.33785 -3.14572,-0.18895 z m -16.51287,0.0782 0.70188,10.44707 -2.89104,0.19428 -4.4719,-5.05888 0.35835,5.33489 -3.14396,0.21146 -0.70247,-10.44648 2.89163,-0.19428 4.48849,5.08731 -0.36072,-5.3651 z m 28.76233,0.73327 8.7963,1.04009 -0.30917,2.61088 -5.35445,-0.63317 -0.15102,1.27523 4.8652,0.57572 -0.3086,2.61029 -4.8652,-0.57513 -0.15224,1.29004 5.48774,0.64916 -0.3086,2.61088 -8.92958,-1.05608 z m -45.42682,0.51886 c 0.78527,-0.01 1.52598,0.1179 2.22173,0.38441 0.92768,0.35534 1.68454,0.91273 2.27149,1.67208 0.59683,0.7581 0.95981,1.65087 1.08866,2.6784 0.13008,1.0374 2e-4,2.00213 -0.38974,2.894 -0.38006,0.89062 -0.97522,1.6278 -1.78521,2.21107 -0.81122,0.57338 -1.7598,0.92809 -2.84661,1.06437 -1.08681,0.13628 -2.09427,0.0266 -3.02194,-0.32872 -0.92892,-0.36523 -1.69237,-0.93193 -2.29044,-1.69992 -0.58819,-0.76922 -0.94733,-1.67239 -1.0774,-2.70979 -0.13009,-1.03741 -0.005,-1.99667 0.3767,-2.87742 0.39118,-0.88199 0.99288,-1.60433 1.80535,-2.16784 0.81122,-0.57338 1.7604,-0.92868 2.84721,-1.06496 0.2717,-0.0341 0.53844,-0.0523 0.8002,-0.0557 z m -0.10484,2.8946 c -0.0962,-0.002 -0.1932,0.004 -0.29201,0.016 -0.3952,0.0496 -0.7518,0.20979 -1.06911,0.48036 -0.30866,0.25949 -0.54271,0.59499 -0.70188,1.00632 -0.14928,0.41011 -0.19337,0.85686 -0.13267,1.34098 0.0607,0.48411 0.2148,0.91132 0.462,1.28175 0.25579,0.3593 0.5655,0.63166 0.92991,0.81679 0.3743,0.18387 0.7592,0.25093 1.15441,0.20138 0.39518,-0.0496 0.74248,-0.20321 1.04127,-0.4614 0.29754,-0.26813 0.51514,-0.61188 0.65331,-1.03061 0.13817,-0.41875 0.17679,-0.86989 0.11609,-1.35401 -0.0607,-0.48413 -0.20874,-0.90693 -0.44482,-1.26872 -0.23727,-0.37166 -0.53279,-0.64623 -0.88609,-0.82271 -0.26497,-0.13236 -0.54186,-0.20091 -0.83041,-0.20612 z m 25.3471,10.4986 c 18.95196,0.0338 35.22053,1.77245 51.50978,6.86777 l -0.0284,1.41206 c -15.76309,-4.72156 -33.14323,-7.03407 -51.48133,-7.06679 -18.33826,0.0328 -35.70054,2.31502 -51.46359,7.03658 l -0.0462,-1.38185 c 16.28922,-5.09533 32.55766,-6.83391 51.50979,-6.86777 z m -41.48562,14.51679 c -13.2757,1.58832 -24.82163,4.45275 -36.04886,9.90689 l -1.48964,2.55758 c 12.58374,-6.38738 25.48705,-9.43356 40.71799,-11.00029 l -3.1789,-1.46418 z m 82.97062,0 -3.17889,1.46418 c 15.23093,1.56673 28.13425,4.61291 40.71799,11.00029 l -1.48964,-2.55758 c -11.22723,-5.45414 -22.77316,-8.31857 -36.04885,-9.90689 z"
         style="opacity:1;vector-effect:none;fill:url(#linearGradient5409);fill-opacity:1;stroke:none;stroke-width:1.61109352;stroke-linecap:butt;stroke-linejoin:miter;stroke-miterlimit:4;stroke-dasharray:none;stroke-dashoffset:0;stroke-opacity:1;paint-order:stroke fill markers" />
    </g>
  </g>
</svg>
