<svg width="630.2" height="496.93" version="1.1" viewBox="0 0 166.73971 131.48045" xmlns="http://www.w3.org/2000/svg" xmlns:xlink="http://www.w3.org/1999/xlink">
    <defs>
        <linearGradient id="linearGradient4678">
            <stop stop-color="#f9ff52" offset="0"/>
            <stop stop-color="#fdffc0" offset="1"/>
        </linearGradient>
        <linearGradient id="linearGradient4680" x1="243.32" x2="243.32" y1="125.36" y2="91.553" gradientUnits="userSpaceOnUse" xlink:href="#linearGradient4678"/>
        <linearGradient id="linearGradient4944" x1="266.76" x2="279.04" y1="159.36" y2="117.87" gradientUnits="userSpaceOnUse" xlink:href="#linearGradient4678"/>
        <linearGradient id="linearGradient4952" x1="290.92" x2="290.92" y1="130.51" y2="109.63" gradientUnits="userSpaceOnUse" xlink:href="#linearGradient4678"/>
        <linearGradient id="linearGradient5409" x1="266.61" x2="266.61" y1="194.44" y2="161.1" gradientTransform="matrix(1.1462 0 0 1.1462 -38.973 -27.017)" gradientUnits="userSpaceOnUse" xlink:href="#linearGradient4678"/>
    </defs>
    <g transform="translate(-170.63 -91.315)">
        <g transform="translate(-9.325)">
            <g transform="translate(-1.2027 1.983)" fill="#545600" style="paint-order:stroke fill markers" aria-label="High">
                <path d="m240.73 109.14q0.32075 0 0.49346 0.29607 0.19738 0.29607 0.19738 0.8142 0 0.96224-0.46878 1.5297-2.4426 2.9854-5.206 2.9854-2.3933 0-3.8243-1.8505t-1.431-5.3046q0-0.83887 0.074-1.6777-1.6284 0.29607-3.5529 0.44411-1.283 0.0987-1.7518 0.12336-0.49346 2.5166-1.3817 6.1682-0.51813 2.1465-1.9738 2.1465-1.5791 0-1.5791-1.431 0-0.32074 0.12337-0.88822 0.83887-3.3802 1.3323-5.7241l-1.1843 0.0494q-0.8142 0-1.1843-0.27141-0.37009-0.29607-0.37009-0.93756 0-0.8142 0.46878-1.1843 0.46878-0.39477 1.5544-0.44411l1.3076-0.0494q0.64149-3.4789 0.64149-5.3046 0-1.1596-0.34541-1.5791-0.34542-0.41944-0.9129-0.41944-1.7271 0-3.8983 2.8867-0.32075 0.41944-0.71551 0.41944-0.34542 0-0.59215-0.32075t-0.24673-0.8142q0-0.76486 0.61682-1.6284 1.0856-1.505 2.7387-2.4673 1.6531-0.98691 3.3555-0.98691 1.6037 0 2.4673 1.1103 0.88822 1.0856 0.88822 3.4048 0 2.0478-0.59215 5.5514l2.4179-0.12336q1.5544-0.074 2.6646-0.24673 0.44411-2.714 1.357-5.0826 0.91289-2.3686 2.2699-3.849 1.357-1.4804 3.0348-1.4804 1.2336 0 1.9492 0.98691 0.71551 0.96224 0.71551 2.5413 0 6.1188-6.2422 8.4874-0.074 0.98691-0.074 2.0478 0 2.5906 0.64149 3.6762 0.6415 1.0856 1.8011 1.0856 1.0116 0 1.8504-0.51813 0.83888-0.5428 1.8998-1.8258 0.29607-0.34541 0.66616-0.34541zm-3.3308-13.989q-0.5428 0-1.1596 0.98691-0.59215 0.98691-1.135 2.6893t-0.86355 3.7256q1.9738-0.8142 2.9114-2.3192 0.93757-1.505 0.93757-3.8736 0-0.56747-0.19739-0.88822-0.19738-0.32075-0.49345-0.32075z" style="paint-order:stroke fill markers"/>
                <path d="m242.66 101.52q-1.0362 0-1.5544-0.46878-0.51813-0.49346-0.51813-1.357 0-0.86355 0.66617-1.431 0.69083-0.59215 1.7024-0.59215 0.91289 0 1.4804 0.44411 0.56748 0.44411 0.56748 1.2583 0 0.98691-0.64149 1.5791-0.6415 0.56747-1.7024 0.56747zm-0.19738 13.249q-1.6037 0-2.3439-1.135-0.71551-1.135-0.71551-3.0101 0-1.1103 0.2714-2.8374 0.29607-1.7518 0.74018-3.2568 0.22206-0.78953 0.59215-1.0856 0.37009-0.29608 1.1843-0.29608 1.2583 0 1.2583 0.83888 0 0.61682-0.46878 2.862-0.59215 2.714-0.59215 3.6762 0 0.74018 0.19739 1.135 0.19738 0.39476 0.66616 0.39476 0.44411 0 1.1103-0.61682 0.66616-0.61682 1.7764-1.9492 0.29608-0.34541 0.66617-0.34541 0.32075 0 0.49346 0.29607 0.19738 0.29607 0.19738 0.8142 0 0.98691-0.46879 1.5297-2.4426 2.9854-4.5645 2.9854z" style="paint-order:stroke fill markers"/>
                <path d="m258.13 109.19q0.32075 0 0.49346 0.32075 0.19738 0.29607 0.19738 0.76485 0 0.56748-0.17271 0.88822-0.17271 0.32075-0.5428 0.56748-2.1219 1.431-3.1088 2.1218l-1.5791 1.0609q-0.93756 5.1073-2.4673 8.0186-1.505 2.9361-3.849 2.9361-1.2583 0-2.0478-0.78953-0.78953-0.76485-0.78953-2.0232 0-1.7518 1.3817-3.7749 1.3817-1.9985 5.1813-4.9346l0.14804-0.96224q-0.41944 0.66617-1.1103 1.0363-0.66617 0.34542-1.3323 0.34542-1.5297 0-2.4426-1.1103-0.91289-1.1103-0.91289-2.9114 0-1.9738 0.91289-3.7256 0.91289-1.7764 2.4179-2.8374 1.5297-1.0856 3.2321-1.0856 0.5428 0 0.71551 0.22205 0.19738 0.19738 0.32074 0.74019 0.46878-0.0987 1.0856-0.0987t0.86355 0.19739q0.2714 0.17271 0.2714 0.71551 0 0.29607-0.0247 0.46878-0.0987 0.76486-0.61682 3.8736-0.0987 0.59215-0.22206 1.3077-0.0987 0.69084-0.22205 1.4804 1.8998-1.4804 3.6516-2.6153 0.32075-0.19738 0.56747-0.19738zm-8.7095 3.0841q0.56747 0 1.0856-0.69084t0.74018-1.9738l0.78953-4.219q-1.0116 0.0247-1.8751 0.78953-0.86355 0.74019-1.3817 1.9738-0.51812 1.2336-0.51812 2.6153 0 0.76485 0.29607 1.135 0.32074 0.37009 0.86355 0.37009zm-2.0478 11.201q0.61682 0 1.3817-1.4804 0.78953-1.4804 1.505-4.7125-1.8998 1.6284-2.7387 2.9361-0.83887 1.3076-0.83887 2.2946 0 0.41943 0.14804 0.69083 0.1727 0.2714 0.5428 0.2714z" style="paint-order:stroke fill markers"/>
                <path d="m266.04 103.14q0.78953 0 1.1843 0.41944 0.41944 0.39476 0.41944 1.1843 0 0.64149-0.2714 2.4179-0.24673 1.505-0.39476 2.862-0.14804 1.3323-0.14804 2.9854 0 0.93757-0.39477 1.357-0.37009 0.39477-1.2336 0.39477-0.81421 0-1.1843-0.41944t-0.37009-1.2583q0-0.98691 0.34542-3.2568 0.29607-1.9738 0.29607-2.5166 0-0.39476-0.2714-0.39476-0.32074 0-0.91289 0.83887-0.59215 0.8142-1.1843 2.1712-0.59215 1.357-0.96224 2.862-0.2714 1.1596-0.64149 1.579-0.34542 0.39477-1.1103 0.39477-0.76485 0-1.1349-0.5428-0.34542-0.56748-0.46879-1.7271-0.12336-1.1596-0.12336-3.4048 0-3.7996 0.76486-7.92 0.78952-4.1204 2.2946-6.9084 1.5297-2.8127 3.6516-2.8127 1.135 0 1.8258 0.98691 0.71551 0.96224 0.71551 2.5166 0 2.492-1.4557 5.1813-1.4557 2.6646-4.7372 6.2422-0.074 1.283-0.074 2.64 0.81421-2.0972 1.8011-3.4048 1.0116-1.3323 1.9738-1.8998 0.98691-0.56748 1.8011-0.56748zm-2.3686-9.2523q-0.44411 0-0.98691 1.283-0.5428 1.2583-1.0609 3.4295-0.49346 2.1465-0.81421 4.6878 1.5297-1.8011 2.5166-3.923 1.0116-2.1219 1.0116-3.849 0-0.78953-0.17271-1.209t-0.49346-0.41944z" style="paint-order:stroke fill markers"/>
            </g>
            <g transform="translate(-1.2027 -.13363)" fill="url(#linearGradient4680)" style="paint-order:stroke fill markers" aria-label="High">
                <path d="m240.73 109.14q0.32075 0 0.49346 0.29607 0.19738 0.29607 0.19738 0.8142 0 0.96224-0.46878 1.5297-2.4426 2.9854-5.206 2.9854-2.3933 0-3.8243-1.8505t-1.431-5.3046q0-0.83887 0.074-1.6777-1.6284 0.29607-3.5529 0.44411-1.283 0.0987-1.7518 0.12336-0.49346 2.5166-1.3817 6.1682-0.51813 2.1465-1.9738 2.1465-1.5791 0-1.5791-1.431 0-0.32074 0.12337-0.88822 0.83887-3.3802 1.3323-5.7241l-1.1843 0.0494q-0.8142 0-1.1843-0.27141-0.37009-0.29607-0.37009-0.93756 0-0.8142 0.46878-1.1843 0.46878-0.39477 1.5544-0.44411l1.3076-0.0494q0.64149-3.4789 0.64149-5.3046 0-1.1596-0.34541-1.5791-0.34542-0.41944-0.9129-0.41944-1.7271 0-3.8983 2.8867-0.32075 0.41944-0.71551 0.41944-0.34542 0-0.59215-0.32075t-0.24673-0.8142q0-0.76486 0.61682-1.6284 1.0856-1.505 2.7387-2.4673 1.6531-0.98691 3.3555-0.98691 1.6037 0 2.4673 1.1103 0.88822 1.0856 0.88822 3.4048 0 2.0478-0.59215 5.5514l2.4179-0.12336q1.5544-0.074 2.6646-0.24673 0.44411-2.714 1.357-5.0826 0.91289-2.3686 2.2699-3.849 1.357-1.4804 3.0348-1.4804 1.2336 0 1.9492 0.98691 0.71551 0.96224 0.71551 2.5413 0 6.1188-6.2422 8.4874-0.074 0.98691-0.074 2.0478 0 2.5906 0.64149 3.6762 0.6415 1.0856 1.8011 1.0856 1.0116 0 1.8504-0.51813 0.83888-0.5428 1.8998-1.8258 0.29607-0.34541 0.66616-0.34541zm-3.3308-13.989q-0.5428 0-1.1596 0.98691-0.59215 0.98691-1.135 2.6893t-0.86355 3.7256q1.9738-0.8142 2.9114-2.3192 0.93757-1.505 0.93757-3.8736 0-0.56747-0.19739-0.88822-0.19738-0.32075-0.49345-0.32075z" style="paint-order:stroke fill markers"/>
                <path d="m242.66 101.52q-1.0362 0-1.5544-0.46878-0.51813-0.49346-0.51813-1.357 0-0.86355 0.66617-1.431 0.69083-0.59215 1.7024-0.59215 0.91289 0 1.4804 0.44411 0.56748 0.44411 0.56748 1.2583 0 0.98691-0.64149 1.5791-0.6415 0.56747-1.7024 0.56747zm-0.19738 13.249q-1.6037 0-2.3439-1.135-0.71551-1.135-0.71551-3.0101 0-1.1103 0.2714-2.8374 0.29607-1.7518 0.74018-3.2568 0.22206-0.78953 0.59215-1.0856 0.37009-0.29608 1.1843-0.29608 1.2583 0 1.2583 0.83888 0 0.61682-0.46878 2.862-0.59215 2.714-0.59215 3.6762 0 0.74018 0.19739 1.135 0.19738 0.39476 0.66616 0.39476 0.44411 0 1.1103-0.61682 0.66616-0.61682 1.7764-1.9492 0.29608-0.34541 0.66617-0.34541 0.32075 0 0.49346 0.29607 0.19738 0.29607 0.19738 0.8142 0 0.98691-0.46879 1.5297-2.4426 2.9854-4.5645 2.9854z" style="paint-order:stroke fill markers"/>
                <path d="m258.13 109.19q0.32075 0 0.49346 0.32075 0.19738 0.29607 0.19738 0.76485 0 0.56748-0.17271 0.88822-0.17271 0.32075-0.5428 0.56748-2.1219 1.431-3.1088 2.1218l-1.5791 1.0609q-0.93756 5.1073-2.4673 8.0186-1.505 2.9361-3.849 2.9361-1.2583 0-2.0478-0.78953-0.78953-0.76485-0.78953-2.0232 0-1.7518 1.3817-3.7749 1.3817-1.9985 5.1813-4.9346l0.14804-0.96224q-0.41944 0.66617-1.1103 1.0363-0.66617 0.34542-1.3323 0.34542-1.5297 0-2.4426-1.1103-0.91289-1.1103-0.91289-2.9114 0-1.9738 0.91289-3.7256 0.91289-1.7764 2.4179-2.8374 1.5297-1.0856 3.2321-1.0856 0.5428 0 0.71551 0.22205 0.19738 0.19738 0.32074 0.74019 0.46878-0.0987 1.0856-0.0987t0.86355 0.19739q0.2714 0.17271 0.2714 0.71551 0 0.29607-0.0247 0.46878-0.0987 0.76486-0.61682 3.8736-0.0987 0.59215-0.22206 1.3077-0.0987 0.69084-0.22205 1.4804 1.8998-1.4804 3.6516-2.6153 0.32075-0.19738 0.56747-0.19738zm-8.7095 3.0841q0.56747 0 1.0856-0.69084t0.74018-1.9738l0.78953-4.219q-1.0116 0.0247-1.8751 0.78953-0.86355 0.74019-1.3817 1.9738-0.51812 1.2336-0.51812 2.6153 0 0.76485 0.29607 1.135 0.32074 0.37009 0.86355 0.37009zm-2.0478 11.201q0.61682 0 1.3817-1.4804 0.78953-1.4804 1.505-4.7125-1.8998 1.6284-2.7387 2.9361-0.83887 1.3076-0.83887 2.2946 0 0.41943 0.14804 0.69083 0.1727 0.2714 0.5428 0.2714z" style="paint-order:stroke fill markers"/>
                <path d="m266.04 103.14q0.78953 0 1.1843 0.41944 0.41944 0.39476 0.41944 1.1843 0 0.64149-0.2714 2.4179-0.24673 1.505-0.39476 2.862-0.14804 1.3323-0.14804 2.9854 0 0.93757-0.39477 1.357-0.37009 0.39477-1.2336 0.39477-0.81421 0-1.1843-0.41944t-0.37009-1.2583q0-0.98691 0.34542-3.2568 0.29607-1.9738 0.29607-2.5166 0-0.39476-0.2714-0.39476-0.32074 0-0.91289 0.83887-0.59215 0.8142-1.1843 2.1712-0.59215 1.357-0.96224 2.862-0.2714 1.1596-0.64149 1.579-0.34542 0.39477-1.1103 0.39477-0.76485 0-1.1349-0.5428-0.34542-0.56748-0.46879-1.7271-0.12336-1.1596-0.12336-3.4048 0-3.7996 0.76486-7.92 0.78952-4.1204 2.2946-6.9084 1.5297-2.8127 3.6516-2.8127 1.135 0 1.8258 0.98691 0.71551 0.96224 0.71551 2.5166 0 2.492-1.4557 5.1813-1.4557 2.6646-4.7372 6.2422-0.074 1.283-0.074 2.64 0.81421-2.0972 1.8011-3.4048 1.0116-1.3323 1.9738-1.8998 0.98691-0.56748 1.8011-0.56748zm-2.3686-9.2523q-0.44411 0-0.98691 1.283-0.5428 1.2583-1.0609 3.4295-0.49346 2.1465-0.81421 4.6878 1.5297-1.8011 2.5166-3.923 1.0116-2.1219 1.0116-3.849 0-0.78953-0.17271-1.209t-0.49346-0.41944z" style="paint-order:stroke fill markers"/>
            </g>
            <g transform="translate(0 4.2333)" fill="#545600" stroke-width="1.2022" aria-label="Same">
                <path d="m221.92 159.27q-6.3959 0-10.243-2.4045-3.8472-2.4526-3.8472-7.4539 0-2.6449 0.9137-4.0395 0.9137-1.3946 2.693-1.3946 1.2984 0 2.1159 0.67325 0.81753 0.67326 0.81753 1.7312 0 0.96179-0.14427 1.6831 0 0.19236-0.0962 0.67325-0.0481 0.4809-0.0481 1.0099 0 2.164 2.164 3.222 2.2121 1.058 6.1554 1.058 4.0876 0 6.3959-1.4427 2.3083-1.4908 2.3083-4.1357 0-1.635-1.058-2.7892-1.058-1.2022-2.6449-1.9717-1.587-0.81752-4.4723-1.9717-3.7029-1.4427-6.0593-2.7411-2.3083-1.2984-3.9914-3.5105-1.635-2.2602-1.635-5.5784 0-3.4624 1.8274-6.1554 1.8755-2.693 5.3379-4.1838 3.5105-1.4908 8.2233-1.4908 3.5105 0 6.444 1.058 2.9335 1.0099 4.6647 3.1258 1.7793 2.1159 1.7793 5.1937 0 3.0296-0.9137 4.5685-0.9137 1.5389-2.693 1.5389-1.2503 0-2.1159-0.76944-0.81753-0.76943-0.81753-1.8274 0-0.9137 0.14427-1.6831 0.14427-1.4427 0.14427-1.8274 0-2.0198-1.9717-3.0777t-4.9051-1.058q-4.1357 0-6.3478 1.5389-2.164 1.4908-2.164 4.2319 0 1.8274 1.1061 3.1258 1.1542 1.2984 2.8373 2.164t4.7128 2.0678q3.6548 1.4908 5.8669 2.693t3.751 3.2701q1.587 2.0678 1.587 5.0975 0 5.6746-4.3281 8.7523-4.28 3.0296-11.493 3.0296z"/>
                <path d="m247.76 159.12q-2.9816 0-4.7609-2.164-1.7793-2.164-1.7793-5.6746 0-3.8472 1.7793-7.2615 1.7793-3.4624 4.7128-5.5303 2.9816-2.1159 6.2997-2.1159 1.058 0 1.3946 0.4328 0.38471 0.38472 0.62516 1.4427 1.0099-0.19236 2.1159-0.19236 2.3564 0 2.3564 1.6831 0 1.0099-0.72135 4.809-1.1061 5.5303-1.1061 7.6943 0 0.72135 0.33663 1.1542 0.38472 0.43281 0.96179 0.43281 0.9137 0 2.2121-1.1542 1.2984-1.2022 3.5105-3.8472 0.57708-0.67325 1.2984-0.67325 0.62516 0 0.96179 0.57707 0.38472 0.57707 0.38472 1.587 0 1.9236-0.91371 2.9816-1.9717 2.4526-4.1838 4.1357-2.2121 1.6831-4.28 1.6831-1.587 0-2.9335-1.058-1.2984-1.1061-1.9717-2.9816-2.5006 4.0395-6.2997 4.0395zm1.7312-4.857q1.058 0 2.0198-1.2503 0.96179-1.2503 1.3946-3.3182l1.7793-8.8485q-2.0198 0.0481-3.751 1.5389-1.6831 1.4427-2.693 3.8472-1.0099 2.4045-1.0099 5.0975 0 1.4908 0.57708 2.2121 0.62516 0.72134 1.6831 0.72134z"/>
                <path d="m267.89 159.12q-1.8274 0-2.5968-1.9236-0.72134-1.9236-0.72134-6.1554 0-6.2516 1.7793-11.878 0.43281-1.3946 1.3946-2.0198 1.0099-0.67325 2.7892-0.67325 0.96179 0 1.3465 0.24044 0.38472 0.24045 0.38472 0.9137 0 0.76944-0.72134 3.4624-0.4809 1.9236-0.76943 3.3663-0.28854 1.3946-0.4809 3.5105 1.2984-3.751 3.0777-6.3478 1.8274-2.5968 3.7029-3.8472 1.9236-1.2984 3.6067-1.2984 1.6831 0 2.3564 0.76943 0.72134 0.76943 0.72134 2.3564 0 1.5389-0.9137 5.5784-0.38471 1.7312-0.52898 2.5968 2.4045-5.915 5.3379-8.608t5.4822-2.693q3.1258 0 3.1258 3.1258 0 1.8755-1.058 6.7806-0.91371 4.1838-0.91371 5.5303 0 1.9236 1.3946 1.9236 0.96179 0 2.2602-1.1542 1.3465-1.2022 3.5586-3.8472 0.57708-0.67325 1.2984-0.67325 0.62516 0 0.96179 0.57707 0.38471 0.57707 0.38471 1.587 0 1.9236-0.9137 2.9816-2.0678 2.5488-4.4723 4.1838-2.3564 1.635-5.386 1.635-2.4526 0-3.7029-1.3946-1.2503-1.4427-1.2503-4.1357 0-1.3465 0.67326-4.809 0.62516-3.0296 0.62516-4.1838 0-0.76943-0.52898-0.76943-0.62517 0-1.7793 1.635-1.1542 1.587-2.3083 4.2319t-1.8755 5.5784q-0.52899 2.3083-1.2503 3.0777-0.67325 0.76943-2.2121 0.76943-1.587 0-2.4045-1.4908-0.76943-1.5389-0.76943-3.7029 0-1.8274 0.48089-5.2898 0.38472-3.0777 0.38472-4.0395 0-0.76943-0.52899-0.76943-0.72134 0-1.8274 1.7312-1.1061 1.7312-2.164 4.4242-1.0099 2.693-1.635 5.2898-0.52898 2.2602-1.2503 3.0777-0.67325 0.76943-2.164 0.76943z"/>
                <path d="m317.48 149.6q0.62516 0 0.96179 0.57708 0.38471 0.57707 0.38471 1.587 0 1.7312-0.81752 2.9816-1.3465 2.0678-3.5586 3.222-2.164 1.1541-5.1937 1.1541-4.6166 0-7.1653-2.7411-2.5488-2.7892-2.5488-7.502 0-3.3182 1.3946-6.1555 1.3946-2.8854 3.8472-4.5685 2.5006-1.6831 5.6265-1.6831 2.7892 0 4.4723 1.6831 1.6831 1.635 1.6831 4.4723 0 3.3182-2.4045 5.7226-2.3564 2.3564-8.079 3.751 1.1542 2.2121 3.8953 2.2121 1.9717 0 3.222-0.9137 1.2984-0.9137 2.9816-3.0777 0.57708-0.72134 1.2984-0.72134zm-7.8867-8.4157q-1.7793 0-3.0296 2.0678-1.2022 2.0678-1.2022 5.0013v0.0962q2.8373-0.67325 4.4723-2.0198 1.635-1.3465 1.635-3.1258 0-0.9137-0.52898-1.4427-0.4809-0.57707-1.3465-0.57707z"/>
            </g>
            <g fill="url(#linearGradient4944)" style="paint-order:stroke fill markers" aria-label="Same">
                <path d="m221.92 159.27q-6.3959 0-10.243-2.4045-3.8472-2.4526-3.8472-7.4539 0-2.6449 0.9137-4.0395 0.9137-1.3946 2.693-1.3946 1.2984 0 2.1159 0.67325 0.81753 0.67326 0.81753 1.7312 0 0.96179-0.14427 1.6831 0 0.19236-0.0962 0.67325-0.0481 0.4809-0.0481 1.0099 0 2.164 2.164 3.222 2.2121 1.058 6.1554 1.058 4.0876 0 6.3959-1.4427 2.3083-1.4908 2.3083-4.1357 0-1.635-1.058-2.7892-1.058-1.2022-2.6449-1.9717-1.587-0.81752-4.4723-1.9717-3.7029-1.4427-6.0593-2.7411-2.3083-1.2984-3.9914-3.5105-1.635-2.2602-1.635-5.5784 0-3.4624 1.8274-6.1554 1.8755-2.693 5.3379-4.1838 3.5105-1.4908 8.2233-1.4908 3.5105 0 6.444 1.058 2.9335 1.0099 4.6647 3.1258 1.7793 2.1159 1.7793 5.1937 0 3.0296-0.9137 4.5685-0.9137 1.5389-2.693 1.5389-1.2503 0-2.1159-0.76944-0.81753-0.76943-0.81753-1.8274 0-0.9137 0.14427-1.6831 0.14427-1.4427 0.14427-1.8274 0-2.0198-1.9717-3.0777t-4.9051-1.058q-4.1357 0-6.3478 1.5389-2.164 1.4908-2.164 4.2319 0 1.8274 1.1061 3.1258 1.1542 1.2984 2.8373 2.164t4.7128 2.0678q3.6548 1.4908 5.8669 2.693t3.751 3.2701q1.587 2.0678 1.587 5.0975 0 5.6746-4.3281 8.7523-4.28 3.0296-11.493 3.0296z" style="paint-order:stroke fill markers"/>
                <path d="m247.76 159.12q-2.9816 0-4.7609-2.164-1.7793-2.164-1.7793-5.6746 0-3.8472 1.7793-7.2615 1.7793-3.4624 4.7128-5.5303 2.9816-2.1159 6.2997-2.1159 1.058 0 1.3946 0.4328 0.38471 0.38472 0.62516 1.4427 1.0099-0.19236 2.1159-0.19236 2.3564 0 2.3564 1.6831 0 1.0099-0.72135 4.809-1.1061 5.5303-1.1061 7.6943 0 0.72135 0.33663 1.1542 0.38472 0.43281 0.96179 0.43281 0.9137 0 2.2121-1.1542 1.2984-1.2022 3.5105-3.8472 0.57708-0.67325 1.2984-0.67325 0.62516 0 0.96179 0.57707 0.38472 0.57707 0.38472 1.587 0 1.9236-0.91371 2.9816-1.9717 2.4526-4.1838 4.1357-2.2121 1.6831-4.28 1.6831-1.587 0-2.9335-1.058-1.2984-1.1061-1.9717-2.9816-2.5006 4.0395-6.2997 4.0395zm1.7312-4.857q1.058 0 2.0198-1.2503 0.96179-1.2503 1.3946-3.3182l1.7793-8.8485q-2.0198 0.0481-3.751 1.5389-1.6831 1.4427-2.693 3.8472-1.0099 2.4045-1.0099 5.0975 0 1.4908 0.57708 2.2121 0.62516 0.72134 1.6831 0.72134z" style="paint-order:stroke fill markers"/>
                <path d="m267.89 159.12q-1.8274 0-2.5968-1.9236-0.72134-1.9236-0.72134-6.1554 0-6.2516 1.7793-11.878 0.43281-1.3946 1.3946-2.0198 1.0099-0.67325 2.7892-0.67325 0.96179 0 1.3465 0.24044 0.38472 0.24045 0.38472 0.9137 0 0.76944-0.72134 3.4624-0.4809 1.9236-0.76943 3.3663-0.28854 1.3946-0.4809 3.5105 1.2984-3.751 3.0777-6.3478 1.8274-2.5968 3.7029-3.8472 1.9236-1.2984 3.6067-1.2984 1.6831 0 2.3564 0.76943 0.72134 0.76943 0.72134 2.3564 0 1.5389-0.9137 5.5784-0.38471 1.7312-0.52898 2.5968 2.4045-5.915 5.3379-8.608t5.4822-2.693q3.1258 0 3.1258 3.1258 0 1.8755-1.058 6.7806-0.91371 4.1838-0.91371 5.5303 0 1.9236 1.3946 1.9236 0.96179 0 2.2602-1.1542 1.3465-1.2022 3.5586-3.8472 0.57708-0.67325 1.2984-0.67325 0.62516 0 0.96179 0.57707 0.38471 0.57707 0.38471 1.587 0 1.9236-0.9137 2.9816-2.0678 2.5488-4.4723 4.1838-2.3564 1.635-5.386 1.635-2.4526 0-3.7029-1.3946-1.2503-1.4427-1.2503-4.1357 0-1.3465 0.67326-4.809 0.62516-3.0296 0.62516-4.1838 0-0.76943-0.52898-0.76943-0.62517 0-1.7793 1.635-1.1542 1.587-2.3083 4.2319t-1.8755 5.5784q-0.52899 2.3083-1.2503 3.0777-0.67325 0.76943-2.2121 0.76943-1.587 0-2.4045-1.4908-0.76943-1.5389-0.76943-3.7029 0-1.8274 0.48089-5.2898 0.38472-3.0777 0.38472-4.0395 0-0.76943-0.52899-0.76943-0.72134 0-1.8274 1.7312-1.1061 1.7312-2.164 4.4242-1.0099 2.693-1.635 5.2898-0.52898 2.2602-1.2503 3.0777-0.67325 0.76943-2.164 0.76943z" style="paint-order:stroke fill markers"/>
                <path d="m317.48 149.6q0.62516 0 0.96179 0.57708 0.38471 0.57707 0.38471 1.587 0 1.7312-0.81752 2.9816-1.3465 2.0678-3.5586 3.222-2.164 1.1541-5.1937 1.1541-4.6166 0-7.1653-2.7411-2.5488-2.7892-2.5488-7.502 0-3.3182 1.3946-6.1555 1.3946-2.8854 3.8472-4.5685 2.5006-1.6831 5.6265-1.6831 2.7892 0 4.4723 1.6831 1.6831 1.635 1.6831 4.4723 0 3.3182-2.4045 5.7226-2.3564 2.3564-8.079 3.751 1.1542 2.2121 3.8953 2.2121 1.9717 0 3.222-0.9137 1.2984-0.9137 2.9816-3.0777 0.57708-0.72134 1.2984-0.72134zm-7.8867-8.4157q-1.7793 0-3.0296 2.0678-1.2022 2.0678-1.2022 5.0013v0.0962q2.8373-0.67325 4.4723-2.0198 1.635-1.3465 1.635-3.1258 0-0.9137-0.52898-1.4427-0.4809-0.57707-1.3465-0.57707z" style="paint-order:stroke fill markers"/>
            </g>
            <g stroke-width=".61682">
                <g transform="translate(-1.2027 1.983)" fill="#545600" aria-label="Low">
                    <path d="m285.12 125.01q0.32074 0 0.49345 0.29607 0.19738 0.29607 0.19738 0.8142 0 0.96224-0.46878 1.5297-1.3817 1.6531-2.6893 2.3192-1.283 0.66617-3.1088 0.66617-1.283 0-2.3686-0.32075-1.0856-0.32075-2.64-0.96224-1.4064-0.61682-2.714-1.0116-1.2583 2.2946-3.7749 2.2946-1.3817 0-2.1959-0.61682-0.83887-0.64149-0.83887-1.6284 0-1.209 1.1596-1.9985 1.1596-0.8142 3.0841-0.8142h0.32074l0.44411-7.1798q0.14804-2.4673 0.88822-4.071t2.0478-2.7387q1.135-0.98691 2.5906-1.4804 1.4557-0.51812 3.0841-0.51812 2.6647 0 4.0957 1.3817 1.431 1.3817 1.431 3.6022 0 1.505-0.5428 2.4426-0.5428 0.91289-1.505 0.91289-0.69084 0-1.0856-0.32074-0.39477-0.34542-0.39477-0.96224 0-0.22206 0.0987-0.8142 0.14804-0.69084 0.14804-1.2336 0-1.0363-0.61682-1.6284-0.59215-0.61681-1.8258-0.61681-2.1712 0-3.3555 1.431-1.1843 1.4063-1.505 4.4411l-0.56747 5.6007q-0.12337 1.1843-0.32075 2.0478 1.5791 0.2714 3.9476 0.86355 1.3817 0.34542 2.1219 0.49345 0.74018 0.14804 1.3077 0.14804 1.431 0 2.4426-0.46878 1.0363-0.49346 1.9492-1.5544 0.29607-0.34541 0.66617-0.34541z"/>
                    <path d="m298.39 122.94q0.32075 0 0.49346 0.32075 0.17271 0.32074 0.17271 0.8142 0 1.1843-0.71551 1.4064-1.4804 0.51813-3.2568 0.59214-0.46878 2.0725-1.8505 3.3308-1.3817 1.2336-3.1334 1.2336-1.4804 0-2.5413-0.71551-1.0363-0.71551-1.5791-1.8998-0.5428-1.1843-0.5428-2.566 0-1.8751 0.71551-3.3308 0.71551-1.4804 1.9738-2.2946 1.2583-0.83887 2.788-0.83887 1.8751 0 3.0101 1.3077 1.1596 1.283 1.357 3.1828 1.1596-0.074 2.7634-0.49345 0.19738-0.0494 0.34542-0.0494zm-8.0927 5.0826q0.78953 0 1.357-0.64149 0.59214-0.64149 0.78952-1.8505-0.76485-0.51812-1.1843-1.357-0.39476-0.83887-0.39476-1.7764 0-0.39476 0.074-0.78953h-0.12337q-0.98691 0-1.6531 0.96224-0.6415 0.93757-0.6415 2.6647 0 1.357 0.51813 2.0725 0.5428 0.71551 1.2583 0.71551z"/>
                    <path d="m311.96 118.99q1.357 0 1.357 0.86355 0 0.29607-0.19738 0.8142-1.9985 4.6632-3.7749 7.5252-0.88822 1.4064-1.6037 1.9245t-1.6284 0.51813q-0.98691 0-1.4804-0.76486-0.46878-0.76486-0.59215-2.5166-0.0493-0.64149-0.0987-1.9245-0.76486 2.1219-1.4064 3.2568-0.61682 1.1103-1.2336 1.5297-0.59214 0.41944-1.431 0.41944-1.0116 0-1.6037-0.78953-0.56747-0.78953-0.71551-2.492-0.29607-3.4542-0.29607-6.0448v-0.86355q0.0247-0.83887 0.41944-1.1349 0.39476-0.32075 1.283-0.32075 0.64149 0 0.93757 0.29607 0.32074 0.2714 0.32074 0.93757 0 2.8374 0.34542 7.3772 0.8142-1.7271 1.505-3.3062 0.69084-1.5791 1.6037-4.0463 0.2714-0.74018 0.64149-0.98691 0.39477-0.2714 0.91289-0.2714 0.69084 0 1.0363 0.29607 0.34542 0.2714 0.34542 0.93757v3.8243q0 2.4673 0.0247 3.5529 1.135-1.9738 1.8505-3.4295 0.74018-1.4557 1.6531-3.923 0.2714-0.74018 0.71551-0.98691 0.44411-0.2714 1.1103-0.2714z"/>
                </g>
                <g transform="translate(-1.2027 -.13363)" fill="url(#linearGradient4952)" aria-label="Low">
                    <path d="m285.12 125.01q0.32074 0 0.49345 0.29607 0.19738 0.29607 0.19738 0.8142 0 0.96224-0.46878 1.5297-1.3817 1.6531-2.6893 2.3192-1.283 0.66617-3.1088 0.66617-1.283 0-2.3686-0.32075-1.0856-0.32075-2.64-0.96224-1.4064-0.61682-2.714-1.0116-1.2583 2.2946-3.7749 2.2946-1.3817 0-2.1959-0.61682-0.83887-0.64149-0.83887-1.6284 0-1.209 1.1596-1.9985 1.1596-0.8142 3.0841-0.8142h0.32074l0.44411-7.1798q0.14804-2.4673 0.88822-4.071t2.0478-2.7387q1.135-0.98691 2.5906-1.4804 1.4557-0.51812 3.0841-0.51812 2.6647 0 4.0957 1.3817 1.431 1.3817 1.431 3.6022 0 1.505-0.5428 2.4426-0.5428 0.91289-1.505 0.91289-0.69084 0-1.0856-0.32074-0.39477-0.34542-0.39477-0.96224 0-0.22206 0.0987-0.8142 0.14804-0.69084 0.14804-1.2336 0-1.0363-0.61682-1.6284-0.59215-0.61681-1.8258-0.61681-2.1712 0-3.3555 1.431-1.1843 1.4063-1.505 4.4411l-0.56747 5.6007q-0.12337 1.1843-0.32075 2.0478 1.5791 0.2714 3.9476 0.86355 1.3817 0.34542 2.1219 0.49345 0.74018 0.14804 1.3077 0.14804 1.431 0 2.4426-0.46878 1.0363-0.49346 1.9492-1.5544 0.29607-0.34541 0.66617-0.34541z"/>
                    <path d="m298.39 122.94q0.32075 0 0.49346 0.32075 0.17271 0.32074 0.17271 0.8142 0 1.1843-0.71551 1.4064-1.4804 0.51813-3.2568 0.59214-0.46878 2.0725-1.8505 3.3308-1.3817 1.2336-3.1334 1.2336-1.4804 0-2.5413-0.71551-1.0363-0.71551-1.5791-1.8998-0.5428-1.1843-0.5428-2.566 0-1.8751 0.71551-3.3308 0.71551-1.4804 1.9738-2.2946 1.2583-0.83887 2.788-0.83887 1.8751 0 3.0101 1.3077 1.1596 1.283 1.357 3.1828 1.1596-0.074 2.7634-0.49345 0.19738-0.0494 0.34542-0.0494zm-8.0927 5.0826q0.78953 0 1.357-0.64149 0.59214-0.64149 0.78952-1.8505-0.76485-0.51812-1.1843-1.357-0.39476-0.83887-0.39476-1.7764 0-0.39476 0.074-0.78953h-0.12337q-0.98691 0-1.6531 0.96224-0.6415 0.93757-0.6415 2.6647 0 1.357 0.51813 2.0725 0.5428 0.71551 1.2583 0.71551z"/>
                    <path d="m311.96 118.99q1.357 0 1.357 0.86355 0 0.29607-0.19738 0.8142-1.9985 4.6632-3.7749 7.5252-0.88822 1.4064-1.6037 1.9245t-1.6284 0.51813q-0.98691 0-1.4804-0.76486-0.46878-0.76486-0.59215-2.5166-0.0493-0.64149-0.0987-1.9245-0.76486 2.1219-1.4064 3.2568-0.61682 1.1103-1.2336 1.5297-0.59214 0.41944-1.431 0.41944-1.0116 0-1.6037-0.78953-0.56747-0.78953-0.71551-2.492-0.29607-3.4542-0.29607-6.0448v-0.86355q0.0247-0.83887 0.41944-1.1349 0.39476-0.32075 1.283-0.32075 0.64149 0 0.93757 0.29607 0.32074 0.2714 0.32074 0.93757 0 2.8374 0.34542 7.3772 0.8142-1.7271 1.505-3.3062 0.69084-1.5791 1.6037-4.0463 0.2714-0.74018 0.64149-0.98691 0.39477-0.2714 0.91289-0.2714 0.69084 0 1.0363 0.29607 0.34542 0.2714 0.34542 0.93757v3.8243q0 2.4673 0.0247 3.5529 1.135-1.9738 1.8505-3.4295 0.74018-1.4557 1.6531-3.923 0.2714-0.74018 0.71551-0.98691 0.44411-0.2714 1.1103-0.2714z"/>
                </g>
            </g>
        </g>
        <g transform="translate(-12.61 2.1167)">
            <path d="m266.61 171.02c-17.788 0.023-35.239 2.7161-50.54 7.7989l0.62606 7.1266c-10.12 2.1498-19.759 5.6268-28.362 10.266l13.201 7.7864-1.6425 3.003c7.3007-2.4875 14.907-4.11 23.17-5.1981l2.0618 0.94946c-9.3828 1.1225-17.9 2.8878-26.053 5.7489l-6.6575 12.174c11.815-6.3874 23.93-9.4336 38.23-11l-0.87838-9.301c11.578-2.6382 23.503-3.622 36.844-3.6474 13.341 0.0253 25.265 1.0092 36.844 3.6474l-0.87836 9.301c14.3 1.5667 26.415 4.6129 38.23 11l-6.6575-12.174c-8.1528-2.8611-16.67-4.6264-26.053-5.7489l2.0618-0.94946c8.2632 1.0881 15.87 2.7105 23.17 5.1981l-1.6425-3.003 13.201-7.7864c-8.6027-4.6396-18.242-8.1167-28.362-10.266l0.62608-7.1266c-15.3-5.0827-32.752-7.7759-50.54-7.7989zm2.5285 2.4302 3.4644 0.0598-0.18008 10.469-3.465-0.0598zm-5.6156 0.0326 0.12912 7.5862 4.3606-0.074 0.0492 2.8822-7.8255 0.13327-0.17769-10.469zm11.022 0.0296 2.8928 0.17295 3.8085 5.615 0.32103-5.3675 3.1309 0.18776-0.62547 10.451-2.8928-0.17295-3.7949-5.5842-0.31984 5.3378-3.1457-0.18895zm-16.513 0.0782 0.70188 10.447-2.891 0.19428-4.4719-5.0589 0.35835 5.3349-3.144 0.21146-0.70247-10.446 2.8916-0.19428 4.4885 5.0873-0.36072-5.3651zm28.762 0.73327 8.7963 1.0401-0.30917 2.6109-5.3544-0.63317-0.15102 1.2752 4.8652 0.57572-0.3086 2.6103-4.8652-0.57513-0.15224 1.29 5.4877 0.64916-0.3086 2.6109-8.9296-1.0561zm-45.427 0.51886c0.78527-0.01 1.526 0.1179 2.2217 0.38441 0.92768 0.35534 1.6845 0.91273 2.2715 1.6721 0.59683 0.7581 0.95981 1.6509 1.0887 2.6784 0.13008 1.0374 2e-4 2.0021-0.38974 2.894-0.38006 0.89062-0.97522 1.6278-1.7852 2.2111-0.81122 0.57338-1.7598 0.92809-2.8466 1.0644s-2.0943 0.0266-3.0219-0.32872c-0.92892-0.36523-1.6924-0.93193-2.2904-1.6999-0.58819-0.76922-0.94733-1.6724-1.0774-2.7098-0.13009-1.0374-5e-3 -1.9967 0.3767-2.8774 0.39118-0.88199 0.99288-1.6043 1.8054-2.1678 0.81122-0.57338 1.7604-0.92868 2.8472-1.065 0.2717-0.0341 0.53844-0.0523 0.8002-0.0557zm-0.10484 2.8946c-0.0962-2e-3 -0.1932 4e-3 -0.29201 0.016-0.3952 0.0496-0.7518 0.20979-1.0691 0.48036-0.30866 0.25949-0.54271 0.59499-0.70188 1.0063-0.14928 0.41011-0.19337 0.85686-0.13267 1.341 0.0607 0.48411 0.2148 0.91132 0.462 1.2818 0.25579 0.3593 0.5655 0.63166 0.92991 0.81679 0.3743 0.18387 0.7592 0.25093 1.1544 0.20138 0.39518-0.0496 0.74248-0.20321 1.0413-0.4614 0.29754-0.26813 0.51514-0.61188 0.65331-1.0306 0.13817-0.41875 0.17679-0.86989 0.11609-1.354-0.0607-0.48413-0.20874-0.90693-0.44482-1.2687-0.23727-0.37166-0.53279-0.64623-0.88609-0.82271-0.26497-0.13236-0.54186-0.20091-0.83041-0.20612zm25.347 10.499c18.952 0.0338 35.221 1.7724 51.51 6.8678l-0.0284 1.4121c-15.763-4.7216-33.143-7.0341-51.481-7.0668-18.338 0.0328-35.701 2.315-51.464 7.0366l-0.0462-1.3818c16.289-5.0953 32.558-6.8339 51.51-6.8678z" fill="#545600"/>
            <path d="m225.73 178.64-8.6482 15.864c3.3177-0.98274 6.6395-1.8302 9.9874-2.554zm81.761 0-1.3392 13.31c3.3479 0.72385 6.6697 1.5713 9.9874 2.554zm-80.274 14.77c-3.7621 0.80107-7.4486 1.7271-11.054 2.7785l-1.0626 1.9493 7.9629 3.667 2.0612 0.94946h5.9e-4l3.1789 1.4642zm78.785 0.0207-1.0857 10.788 3.1789-1.4642h6.1e-4l2.0612-0.94946 7.9629-3.667-1.0466-1.9202c-3.6101-1.053-7.3024-1.9824-11.071-2.7868z" fill="#c4c939"/>
            <path d="m266.61 165.56c-18.946 0.023-37.533 2.7161-53.829 7.7989l0.16526 1.7686c16.256-5.0496 34.782-7.725 53.664-7.7479 18.882 0.0229 37.408 2.6984 53.664 7.7479l0.16525-1.7686c-16.296-5.0827-34.884-7.7759-53.829-7.7989zm0 3.0326c-18.839 0.0229-37.323 2.6873-53.553 7.7148l0.39092 4.1781c-10.779 2.1498-21.045 5.6268-30.208 10.266l1.7354 0.96131c8.6838-4.1962 18.298-7.3689 28.361-9.3851l0.11136 1.1899c-9.6498 1.9246-18.886 4.9159-27.289 8.8502l11.141 6.17-7.2451 12.44c10.333-4.8735 20.974-7.5913 33.009-9.176l-7.9629-3.667c16.289-5.0953 32.558-6.8339 51.51-6.8678 18.952 0.0338 35.221 1.7724 51.51 6.8678l-7.9629 3.667c12.035 1.5847 22.676 4.3025 33.009 9.176l-7.2451-12.44 11.141-6.17c-8.4036-3.9343-17.639-6.9257-27.289-8.8502l0.11136-1.1899c10.063 2.0162 19.677 5.1889 28.361 9.3851l1.7355-0.96131c-9.1626-4.6396-19.429-8.1167-30.208-10.266l0.39093-4.1781c-16.23-5.0275-34.714-7.6919-53.553-7.7148zm2.5285 4.8563 3.4644 0.0598-0.18008 10.469-3.465-0.0598zm-5.6156 0.0326 0.12912 7.5862 4.3606-0.074 0.0492 2.8822-7.8255 0.13327-0.17769-10.469zm11.022 0.0296 2.8928 0.17295 3.8085 5.615 0.32103-5.3675 3.1309 0.18776-0.62547 10.451-2.8928-0.17295-3.7949-5.5842-0.31984 5.3378-3.1457-0.18895zm-16.513 0.0782 0.70188 10.447-2.891 0.19428-4.4719-5.0589 0.35835 5.3349-3.144 0.21146-0.70247-10.446 2.8916-0.19428 4.4885 5.0873-0.36072-5.3651zm28.762 0.73327 8.7963 1.0401-0.30917 2.6109-5.3544-0.63317-0.15102 1.2752 4.8652 0.57572-0.3086 2.6103-4.8652-0.57513-0.15224 1.29 5.4877 0.64916-0.3086 2.6109-8.9296-1.0561zm-45.427 0.51886c0.78527-0.01 1.526 0.1179 2.2217 0.38441 0.92768 0.35534 1.6845 0.91273 2.2715 1.6721 0.59683 0.7581 0.95981 1.6509 1.0887 2.6784 0.13008 1.0374 2e-4 2.0021-0.38974 2.894-0.38006 0.89062-0.97522 1.6278-1.7852 2.2111-0.81122 0.57338-1.7598 0.92809-2.8466 1.0644s-2.0943 0.0266-3.0219-0.32872c-0.92892-0.36523-1.6924-0.93193-2.2904-1.6999-0.58819-0.76922-0.94733-1.6724-1.0774-2.7098-0.13009-1.0374-5e-3 -1.9967 0.3767-2.8774 0.39118-0.88199 0.99288-1.6043 1.8054-2.1678 0.81122-0.57338 1.7604-0.92868 2.8472-1.065 0.2717-0.0341 0.53844-0.0523 0.8002-0.0557zm-0.10484 2.8946c-0.0962-2e-3 -0.1932 4e-3 -0.29201 0.016-0.3952 0.0496-0.7518 0.20979-1.0691 0.48036-0.30866 0.25949-0.54271 0.59499-0.70188 1.0063-0.14928 0.41011-0.19337 0.85686-0.13267 1.341 0.0607 0.48411 0.2148 0.91132 0.462 1.2818 0.25579 0.3593 0.5655 0.63166 0.92991 0.81679 0.3743 0.18387 0.7592 0.25093 1.1544 0.20138 0.39518-0.0496 0.74248-0.20321 1.0413-0.4614 0.29754-0.26813 0.51514-0.61188 0.65331-1.0306 0.13817-0.41875 0.17679-0.86989 0.11609-1.354-0.0607-0.48413-0.20874-0.90693-0.44482-1.2687-0.23727-0.37166-0.53279-0.64623-0.88609-0.82271-0.26497-0.13236-0.54186-0.20091-0.83041-0.20612zm25.347 10.499c18.952 0.0338 35.221 1.7724 51.51 6.8678l-0.0284 1.4121c-15.763-4.7216-33.143-7.0341-51.481-7.0668-18.338 0.0328-35.701 2.315-51.464 7.0366l-0.0462-1.3818c16.289-5.0953 32.558-6.8339 51.51-6.8678zm-41.486 14.517c-13.276 1.5883-24.822 4.4528-36.049 9.9069l-1.4896 2.5576c12.584-6.3874 25.487-9.4336 40.718-11l-3.1789-1.4642zm82.971 0-3.1789 1.4642c15.231 1.5667 28.134 4.6129 40.718 11l-1.4896-2.5576c-11.227-5.4541-22.773-8.3186-36.049-9.9069z" fill="url(#linearGradient5409)" style="paint-order:stroke fill markers"/>
        </g>
    </g>
</svg>
